<svg width="880.97607" height="200.23205" xmlns="http://www.w3.org/2000/svg" style="background: #ffffff;" version="1.1" preserveAspectRatio="none" ref="svg_canvas">
 <g>
  <title>background</title>
  <rect fill="none" id="canvas_background" height="202.23205" width="882.97607" y="-1" x="-1"/>
 </g>

 <g>
  <title>Layer 1</title>
  <g id="svg_48">
   <g display="inline" transform="translate(98,221.9913330078125) scale(1) " key="shape_OYqKI1CcvR" ref="shape_OYqKI1CcvR" id="shape_OYqKI1CcvR">
    <g id="svg_5" display="inline">
     <rect id="svg_6" y="-216" x="-99" height="185.64036" width="237.20239" fill="rgba(0,0,0,0)"/>
     <svg data-parent="shape_OYqKI1CcvR" preserveAspectRatio="none" class="style-removed" xml:space="preserve" viewBox="2.5 23.899999618530273 196.29998779296875 149.70001220703125" height="165.64036" width="217.20239" y="-206" x="-89" id="svg_1" version="1.1" xmlns:xlink="http://www.w3.org/1999/xlink" xmlns="http://www.w3.org/2000/svg">
      <path id="svg_11" stroke-width="0" fill="#0348FE" d="m2.5,173.5l15.7,-55.8c1.9,-6.7 8,-11.3 14.9,-11.3l77.7,0l-15.8,55.9c-1.9,6.7 -8,11.3 -14.9,11.3l-77.6,0l0,-0.1z"/>
      <path id="svg_10" stroke-width="0" fill="#027DFF" d="m50.3,50.5l6.2,-22.1c0.7,-2.6 3.2,-4.5 5.9,-4.5l30.7,0l-6.2,22.1c-0.7,2.6 -3.2,4.5 -5.9,4.5l-30.7,0z"/>
      <path id="svg_9" stroke-width="0" fill="#027DFF" d="m46.5,132.3l15.7,-55.8c1.9,-6.7 8,-11.3 14.9,-11.3l77.7,0l-15.7,55.8c-1.9,6.7 -8,11.3 -14.9,11.3l-77.7,0z"/>
      <path id="svg_8" stroke-width="0" fill="#0507D9" d="m77.1,65.3c-6.9,0 -13,4.6 -14.9,11.3l28.3,14.4c0,0 7.3,-25.8 7.3,-25.8l-20.7,0l0,0.1z"/>
      <path id="svg_7" stroke-width="0" fill="#0507D9" d="m33.1,106.5c-6.9,0 -13,4.6 -14.9,11.3l28.3,14.5c0,0 7.3,-25.8 7.3,-25.8l-20.7,0z"/>
      <path id="svg_2" stroke-width="0" fill="#0348FE" d="m90.5,91l15.7,-55.8c1.9,-6.7 8,-11.3 14.9,-11.3l77.7,0l-15.7,55.8c-1.9,6.7 -8,11.3 -14.9,11.3l-77.7,0z"/>
     </svg>
    </g>
   </g>
   <g display="inline" transform="translate(145.4015350341797,-51.6750373840332) scale(1) " key="shape_PUimOcwDy2" ref="shape_PUimOcwDy2" id="shape_PUimOcwDy2">
    <g id="svg_3" display="inline">
     <svg y="-206" x="-89" id="svg_13" data-parent="shape_PUimOcwDy2" preserveAspectRatio="none" viewBox="0 0 1133.6799999999998 805.52" height="805.52" width="1133.68" version="1.1" xmlns:xlink="http://www.w3.org/1999/xlink" xmlns="http://www.w3.org/2000/svg">
      <rect id="svg_24" y="335.76" x="111.92" height="134" width="686" fill="rgba(0,0,0,0)"/>
      <g id="svg_14" data-width="685.73384">
       <path id="svg_23" data-glyph-descender="-15.78072" data-glyph-ascender="96.13928" data-glyph-h="111.92" data-glyph-w="99.49688" stroke-width="0.187" stroke="rgb(8, 12, 36)" fill="rgb(8, 12, 36)" d="m119.19,368.11001l23.17,0l18.58,58.31l19.59,-58.31l23.16,0l0,74.65l-15.1,0l0,-55.96l-19.48,55.96l-16.34,0l-18.47,-55.96l0,55.96l-15.11,0l0,-74.65z"/>
       <path id="svg_22" data-glyph-descender="-15.78072" data-glyph-ascender="96.13928" data-glyph-h="111.92" data-glyph-w="78.67976" stroke-width="0.187" stroke="rgb(8, 12, 36)" fill="rgb(8, 12, 36)" d="m218.13688,368.11001l15.78,0l0,44.77q0,5.37 0.89,8.34q0.9,2.96 3.02,5.09l0,0q4.7,4.59 13.1,4.59l0,0q5.37,0 9.34,-1.85q3.98,-1.85 5.54,-4.98l0,0q1.57,-3.13 1.57,-11.19l0,0l0,-44.77l15.89,0l0,43.98q0,8.73 -1.84,14.39q-1.85,5.65 -5.66,9.12l0,0q-8.84,7.72 -25.07,7.72l0,0q-17.34,0 -25.29,-7.61l0,0q-4.14,-3.92 -5.71,-8.79q-1.56,-4.87 -1.56,-13.71l0,0l0,-45.1z"/>
       <path id="svg_21" data-glyph-descender="-15.78072" data-glyph-ascender="96.13928" data-glyph-h="111.92" data-glyph-w="99.49688" stroke-width="0.187" stroke="rgb(8, 12, 36)" fill="rgb(8, 12, 36)" d="m297.36663,368.11001l23.17,0l18.58,58.31l19.59,-58.31l23.16,0l0,74.65l-15.1,0l0,-55.96l-19.48,55.96l-16.34,0l-18.47,-55.96l0,55.96l-15.11,0l0,-74.65z"/>
       <path id="svg_20" data-glyph-descender="-15.78072" data-glyph-ascender="96.13928" data-glyph-h="111.92" data-glyph-w="78.67976" stroke-width="0.187" stroke="rgb(8, 12, 36)" fill="rgb(8, 12, 36)" d="m396.31352,368.11001l15.78,0l0,44.77q0,5.37 0.89,8.34q0.9,2.96 3.02,5.09l0,0q4.7,4.59 13.1,4.59l0,0q5.37,0 9.34,-1.85q3.98,-1.85 5.54,-4.98l0,0q1.57,-3.13 1.57,-11.19l0,0l0,-44.77l15.89,0l0,43.98q0,8.73 -1.84,14.39q-1.85,5.65 -5.66,9.12l0,0q-8.84,7.72 -25.07,7.72l0,0q-17.34,0 -25.29,-7.61l0,0q-4.14,-3.92 -5.71,-8.79q-1.56,-4.87 -1.56,-13.71l0,0l0,-45.1z"/>
       <path id="svg_19" data-glyph-descender="-15.78072" data-glyph-ascender="96.13928" data-glyph-h="111.92" data-glyph-w="26.07736" stroke-width="0.187" stroke="rgb(8, 12, 36)" fill="rgb(8, 12, 36)" d="m468.27327,407.17001l26.08,0l0,13.43l-26.08,0l0,-13.43z"/>
       <path id="svg_18" data-glyph-descender="-15.78072" data-glyph-ascender="96.13928" data-glyph-h="111.92" data-glyph-w="76.6652" stroke-width="0.187" stroke="rgb(8, 12, 36)" fill="rgb(8, 12, 36)" d="m543.37063,416.68001l-25.52,0l0,26.08l-15.89,0l0,-74.65l37.27,0q10.18,0 14.55,1.45l0,0q7.39,2.47 11.64,10.19l0,0q3.13,5.82 3.13,12.65l0,0q0,5.7 -2.07,10.8q-2.07,5.09 -5.76,8.33l0,0q-3.36,2.91 -7.11,4.03q-3.75,1.12 -10.24,1.12l0,0zm-25.52,-35.25l0,21.93l21.6,0q5.82,0 8.17,-1.79l0,0q3.47,-2.79 3.47,-9.73l0,0q0,-7.5 -5.26,-9.63l0,0q-1.9,-0.78 -6.04,-0.78l0,0l-21.94,0z"/>
       <path id="svg_17" data-glyph-descender="-15.78072" data-glyph-ascender="96.13928" data-glyph-h="111.92" data-glyph-w="80.80624" stroke-width="0.187" stroke="rgb(8, 12, 36)" fill="rgb(8, 12, 36)" d="m589.92582,442.76001l-18.57,0l30.89,-74.65l18.24,0l30.89,74.65l-18.58,0l-7.27,-17.24l-28.32,0l-7.28,17.24zm32.13,-30.55l-10.64,-26.08l-10.63,26.08l21.27,0z"/>
       <path id="svg_16" data-glyph-descender="-15.78072" data-glyph-ascender="96.13928" data-glyph-h="111.92" data-glyph-w="77.33672" stroke-width="0.187" stroke="rgb(8, 12, 36)" fill="rgb(8, 12, 36)" d="m686.8521,411.76001l0,-13.32l36.6,0l0,44.32l-33.35,0q-8.62,0 -13.71,-1.29q-5.1,-1.28 -9.24,-4.53l0,0q-11.75,-9.07 -11.75,-31.23l0,0q0,-14.43 5.6,-24.06l0,0q4.14,-7.05 11.3,-10.29q7.16,-3.25 18.58,-3.25l0,0l32.57,0l0,13.32l-30.78,0q-9.96,0 -14.44,4.36l0,0q-5.37,5.15 -5.37,18.47l0,0q0,6.83 1.4,12.31q1.4,5.48 3.86,8.17l0,0q2.13,2.46 5.88,3.58q3.75,1.12 9.23,1.12l0,0l14.44,0l0,-17.68l-20.82,0z"/>
       <path id="svg_15" data-glyph-descender="-15.78072" data-glyph-ascender="96.13928" data-glyph-h="111.92" data-glyph-w="68.49504" stroke-width="0.187" stroke="rgb(8, 12, 36)" fill="rgb(8, 12, 36)" d="m765.97877,368.11001l26.75,0l0,13.32l-20.7,0q-8.06,0 -11.76,1.12q-3.69,1.12 -6.15,4.36l0,0q-1.68,2.24 -2.3,4.48q-0.61,2.24 -1.06,7.61l0,0l41.97,0l0,13.32l-41.97,0q0.9,9.62 5.71,13.37q4.81,3.75 16.34,3.75l0,0l19.92,0l0,13.32l-20.7,0q-8.4,0 -14.78,-1.01l0,0q-10.07,-1.68 -16,-8.84l0,0q-8.51,-10.3 -8.51,-27.87l0,0q0,-19.47 11.98,-30.33l0,0q4.14,-3.69 8.78,-5.15q4.65,-1.45 12.48,-1.45l0,0z"/>
      </g>
     </svg>
    </g>
   </g>
   <g display="inline" transform="translate(286.466064453125,151.07008361816406) scale(1) " key="shape_2S9bfUBiMb" ref="shape_2S9bfUBiMb" id="shape_2S9bfUBiMb">
    <g id="svg_4" display="inline">
     <svg y="-206" x="-89" id="svg_25" data-parent="shape_2S9bfUBiMb" preserveAspectRatio="none" viewBox="0 0 771.04 241.06" height="241.06" width="771.04" version="1.1" xmlns:xlink="http://www.w3.org/1999/xlink" xmlns="http://www.w3.org/2000/svg">
      <rect id="svg_46" y="100.53" x="33.51" height="40" width="637" fill="rgba(0,0,0,0)"/>
      <g id="svg_26" data-width="636.69">
       <path id="svg_45" data-glyph-descender="-4.0212" data-glyph-ascender="29.4888" data-glyph-h="33.51" data-glyph-w="33.51" stroke-width="0.056" stroke="rgb(8, 12, 36)" fill="rgb(8, 12, 36)" d="m41.52,110.48l17.32,0l0,-2.71l-17.32,0l0,2.71zm0,4.52l17.32,0l0,-2.71l-17.32,0l0,2.71zm-2.45,-9.14l22.25,0l0,11.05l-22.25,0l0,-11.05zm23.76,21.48l-11.06,0l0,4.55q1.85,0.2 3.96,0.2l0,0q0.63,0 2.69,0q2.07,0 4.14,-0.01q2.08,-0.02 3.05,-0.02l0,0q-0.27,0.47 -0.52,1.14q-0.25,0.67 -0.35,1.24l0,0l-9.11,0q-3.35,0 -5.93,-0.45q-2.58,-0.45 -4.51,-1.68q-1.93,-1.22 -3.27,-3.47l0,0q-1.94,3.89 -5.23,6.3l0,0q-0.26,-0.36 -0.83,-0.9q-0.57,-0.54 -1.01,-0.87l0,0q5.19,-3.45 6.5,-10.89l0,0l2.51,0.33q-0.36,1.74 -0.87,3.35l0,0q1.98,4.36 6.34,5.33l0,0l0,-10.09l-13.74,0l0,-2.24l29.42,0l0,2.24l-13.24,0l0,3.72l11.06,0l0,2.22z"/>
       <path id="svg_44" data-glyph-descender="-4.0212" data-glyph-ascender="29.4888" data-glyph-h="33.51" data-glyph-w="33.51" stroke-width="0.056" stroke="rgb(8, 12, 36)" fill="rgb(8, 12, 36)" d="m77.91,116.85l0,-7.31l-5.7,0l0,7.31l5.7,0zm-5.7,2.24l0,7.58l5.7,0l0,-7.58l-5.7,0zm-2.34,-11.79l10.39,0l0,21.64l-8.05,0l0,2.65l-2.34,0l0,-24.29zm25.2,3.88l4.05,0l0,2.45l-4.05,0l0,17.76q0,1.34 -0.4,1.99q-0.41,0.66 -1.28,0.93l0,0q-1.67,0.57 -6.63,0.43l0,0q-0.1,-0.53 -0.35,-1.24q-0.26,-0.7 -0.56,-1.24l0,0q1.98,0.04 3.59,0.05q1.61,0.02 2.21,-0.01l0,0q0.5,0 0.72,-0.21q0.22,-0.2 0.22,-0.7l0,0l0,-17.76l-10.83,0l0,-2.45l10.83,0l0,-6.5l2.48,0l0,6.5zm-4.89,13.11l0,0l-2.18,1.27q-0.87,-1.61 -2.3,-3.89q-1.42,-2.28 -2.8,-4.29l0,0l2.05,-1.07q1.37,1.98 2.86,4.19q1.49,2.21 2.37,3.79z"/>
       <path id="svg_43" data-glyph-descender="-4.0212" data-glyph-ascender="29.4888" data-glyph-h="33.51" data-glyph-w="33.51" stroke-width="0.056" stroke="rgb(8, 12, 36)" fill="rgb(8, 12, 36)" d="m128.50999,112.22l3.75,0l0,2.15l-18.19,0l0,-2.15l12.06,0q0.3,-1.47 0.5,-2.98l0,0q0.1,-0.5 0.17,-1l0,0l-10.86,0l0,-2.12l11.33,0l0.4,-0.13l1.71,0.2q-0.37,3.08 -0.87,6.03l0,0zm-20.17,-7.54l0,0l2.28,0.64q-1.11,3.79 -2.75,7.37l0,0l0,22.45l-2.38,0l0,-17.86q-1.14,1.98 -2.41,3.56l0,0q-0.17,-0.47 -0.57,-1.26q-0.41,-0.79 -0.77,-1.26l0,0q4.25,-5.49 6.6,-13.64zm4.39,23.93l-2.18,0l0,-16.92l2.18,0l0,16.92zm19.6,-4.39l0,2.18l-7.54,0q0.6,1.84 2.43,3.63q1.83,1.8 5.65,2.84l0,0q-0.4,0.4 -0.82,0.95q-0.42,0.55 -0.66,1.09l0,0q-3.38,-1.04 -5.26,-2.77q-1.87,-1.72 -2.78,-3.63l0,0q-0.84,1.81 -2.9,3.53q-2.06,1.73 -5.78,3.14l0,0q-0.27,-0.44 -0.7,-0.97q-0.44,-0.54 -0.87,-0.88l0,0q4.29,-1.44 6.2,-3.25q1.91,-1.81 2.34,-3.68l0,0l-7.5,0l0,-2.18l7.84,0q0,-0.37 0,-0.7l0,0l0,-3.66l-3.69,0q-1.14,2.11 -2.48,3.66l0,0q-0.37,-0.27 -0.92,-0.66q-0.55,-0.38 -1.02,-0.65l0,0q2.78,-3.02 4.15,-7.64l0,0l2.25,0.53q-0.4,1.38 -0.97,2.65l0,0l11.93,0l0,2.11l-6.81,0l0,3.69q0,0.33 0,0.67l0,0l7.91,0z"/>
       <path id="svg_42" data-glyph-descender="-4.0212" data-glyph-ascender="29.4888" data-glyph-h="33.51" data-glyph-w="33.51" stroke-width="0.056" stroke="rgb(8, 12, 36)" fill="rgb(8, 12, 36)" d="m144.7,120.8l0,4.42l3.01,0l0,-4.42l-3.01,0zm-4.86,4.42l0,0l3.05,0l0,-4.42l-2.95,0l0,1.04q0,1.54 -0.1,3.38zm5.69,-15.78l0,0l-4.32,0q-0.77,1.84 -1.67,3.49l0,0l4.49,0q0.87,-1.61 1.5,-3.49zm2.18,5.46l-3.01,0l0,4.02l3.01,0l0,-4.02zm-4.82,0l-2.95,0l0,4.02l2.95,0l0,-4.02zm3.45,-1.97l3.48,0l0,19.33q0,1.61 -0.94,2.11l0,0q-0.5,0.3 -1.3,0.37q-0.81,0.07 -2.08,0.07l0,0q-0.07,-0.47 -0.23,-1.07q-0.17,-0.61 -0.44,-1.08l0,0q1.98,0.04 2.41,0.04l0,0q0.27,0 0.37,-0.1q0.1,-0.1 0.1,-0.37l0,0l0,-5.03l-3.01,0l0,6.13l-1.81,0l0,-6.13l-3.25,0q-0.41,4.46 -2.52,8.01l0,0q-0.3,-0.3 -0.85,-0.65q-0.55,-0.35 -0.96,-0.52l0,0q1.11,-1.78 1.65,-3.91q0.53,-2.12 0.68,-4.29q0.15,-2.16 0.15,-4.03l0,0l0,-6.17q-0.16,0.24 -0.37,0.44l0,0q-0.2,0.23 -0.36,0.47l0,0q-0.31,-0.31 -0.86,-0.74q-0.55,-0.44 -0.95,-0.71l0,0q3.58,-4.18 5.22,-10.62l0,0l2.25,0.47q-0.37,1.24 -0.77,2.51l0,0l4.62,0l0.37,-0.1l1.51,0.98q-0.91,2.34 -2.11,4.59l0,0zm16.49,-4.63l0,0l-4.9,0q-0.43,2.95 -1.82,5.3q-1.39,2.34 -4.31,3.78l0,0q-0.2,-0.43 -0.6,-0.92q-0.41,-0.48 -0.77,-0.82l0,0q2.51,-1.14 3.7,-3.05q1.19,-1.91 1.56,-4.29l0,0l-4.56,0l0,-2.11l14.04,0q0,0 0,0.17q0,0.17 -0.02,0.4q-0.01,0.24 -0.01,0.4l0,0q-0.2,4.06 -0.49,5.98q-0.28,1.93 -0.79,2.47l0,0q-0.63,0.77 -1.81,0.84l0,0q-1.2,0.06 -3.45,-0.04l0,0q-0.03,-0.5 -0.18,-1.07q-0.15,-0.57 -0.42,-1.01l0,0q1,0.1 1.84,0.12q0.84,0.02 1.18,0.02l0,0q0.33,0.03 0.57,-0.02q0.23,-0.05 0.4,-0.28l0,0q0.23,-0.31 0.45,-1.65q0.22,-1.34 0.39,-4.22zm-2.59,18.2l5.84,0l0,2.18l-5.84,0l0,6.4l-2.34,0l0,-6.4l-6.74,0l0,-2.18l6.74,0l0,-4.09l-3.65,0q-0.77,1.88 -1.75,3.25l0,0q-0.36,-0.23 -0.92,-0.54q-0.55,-0.3 -0.99,-0.5l0,0q2.18,-3.05 3.02,-7.47l0,0l2.14,0.4q-0.26,1.24 -0.67,2.45l0,0q-0.03,0.13 -0.06,0.27l0,0l2.88,0l0,-3.19l2.34,0l0,3.19l5,0l0,2.14l-5,0l0,4.09z"/>
       <path id="svg_41" data-glyph-descender="-4.0212" data-glyph-ascender="29.4888" data-glyph-h="33.51" data-glyph-w="33.51" stroke-width="0.056" stroke="rgb(8, 12, 36)" fill="rgb(8, 12, 36)" d="m178.50999,108.91l0,0l-2.25,0.73q-0.23,-0.97 -0.72,-2.21q-0.48,-1.24 -0.99,-2.34l0,0l2.15,-0.64q0.53,1.07 1.04,2.29q0.5,1.23 0.77,2.17zm-3.05,3.31l0,4.46l6.97,0q0,0 0,0.13q0,0.14 0,0.32q0,0.19 -0.02,0.37q-0.02,0.19 -0.02,0.32l0,0q-0.16,8.08 -0.43,11.58q-0.27,3.5 -0.87,4.24l0,0q-0.74,0.97 -1.98,1.07l0,0q-1.37,0.13 -3.58,0l0,0q-0.07,-0.54 -0.24,-1.16q-0.17,-0.62 -0.43,-1.15l0,0q2.34,0.16 3.15,0.16l0,0q0.67,0 0.97,-0.47l0,0q0.4,-0.43 0.63,-3.4q0.24,-2.96 0.37,-9.73l0,0l-4.52,0l0,0.23q0,2.75 -0.35,5.52q-0.36,2.76 -1.46,5.37q-1.11,2.62 -3.29,5l0,0q-0.33,-0.41 -0.85,-0.86q-0.52,-0.45 -0.99,-0.75l0,0q2.01,-2.18 2.98,-4.59q0.98,-2.42 1.28,-4.9q0.3,-2.47 0.3,-4.82l0,0l0,-6.94l-3.96,0l0,-2.31l14.78,0l0,2.31l-8.44,0zm19.27,0.81l0,0l-6.27,0q-0.07,0.13 -0.1,0.27l0,0q-0.03,0.03 -0.03,0.06l0,0q1,5.93 3.18,10.56l0,0q2.31,-4.49 3.22,-10.89zm4.92,-2.32l0,2.32l-2.44,0q-1.21,8.04 -4.29,13.4l0,0q2.68,4.32 7.03,6.47l0,0q-0.43,0.4 -0.92,1q-0.48,0.61 -0.82,1.14l0,0q-4.19,-2.24 -6.8,-6.36l0,0q-2.98,3.95 -7.94,6.5l0,0q-0.2,-0.47 -0.64,-1.11q-0.44,-0.64 -0.8,-1.07l0,0q5.19,-2.41 8.04,-6.64l0,0q-2.01,-4.12 -3.25,-9.31l0,0q-1.07,2.31 -2.41,4.15l0,0q-0.34,-0.36 -0.91,-0.93q-0.57,-0.57 -1.04,-0.94l0,0q2.05,-2.72 3.44,-6.6q1.39,-3.89 2.16,-8.25l0,0l2.51,0.4q-0.57,2.99 -1.37,5.83l0,0l10.45,0z"/>
       <path id="svg_40" data-glyph-descender="-4.0212" data-glyph-ascender="29.4888" data-glyph-h="33.51" data-glyph-w="33.51" stroke-width="0.056" stroke="rgb(8, 12, 36)" fill="rgb(8, 12, 36)" d="m216.74,129.08l0,0l-2.11,1.67q-1.04,-2.38 -3.01,-5.42l0,0q-3.02,6.26 -7.44,9.75l0,0q-0.31,-0.47 -0.81,-1.04q-0.5,-0.57 -1,-0.91l0,0q4.62,-3.38 7.6,-10.28l0,0q-3.01,-4.56 -6.33,-8.48l0,0l1.84,-1.38q2.82,3.32 5.6,7.11l0,0q1.67,-4.76 2.48,-10.62l0,0l-10.22,0l0,-2.38l10.86,0l0.4,-0.1l1.57,0.43q-0.87,8.85 -3.35,15.11l0,0q2.55,3.69 3.92,6.54zm12.3,-19.6l0,0l-8.21,0q1.04,7.77 3.65,13.67l0,0q3.22,-5.6 4.56,-13.67zm0.67,-2.38l0.44,-0.1l1.61,0.46q-1.48,11.5 -5.9,18.37l0,0q2.75,4.72 7.3,7.27l0,0q-0.47,0.37 -0.95,0.97q-0.49,0.6 -0.82,1.11l0,0q-4.36,-2.65 -7.11,-7.07l0,0q-3.42,4.42 -8.07,6.97l0,0q-0.27,-0.51 -0.74,-1.13q-0.47,-0.62 -0.94,-0.98l0,0q4.86,-2.38 8.38,-7.38l0,0q-3.12,-6.77 -4.49,-16.11l0,0l-0.81,0l0,-2.38l12.1,0z"/>
       <path id="svg_39" data-glyph-descender="-4.0212" data-glyph-ascender="29.4888" data-glyph-h="33.51" data-glyph-w="33.51" stroke-width="0.056" stroke="rgb(8, 12, 36)" fill="rgb(8, 12, 36)" d="m252.63,121.74l13.74,0l0,2.45l-13.74,0l0,7.44q0,1.34 -0.42,1.99q-0.42,0.65 -1.35,0.92l0,0q-1.75,0.54 -6.91,0.44l0,0q-0.16,-0.57 -0.47,-1.26q-0.3,-0.69 -0.6,-1.22l0,0q2.21,0.06 3.87,0.06q1.66,0 2.33,-0.03l0,0q1.11,0 1.04,-0.94l0,0l0,-7.4l-13.77,0l0,-2.45l13.77,0l0,-5.43l-11.53,0l0,-2.38l11.53,0l0,-5.16q-5.63,0.57 -10.93,0.81l0,0q-0.06,-0.54 -0.25,-1.16q-0.18,-0.62 -0.38,-1.06l0,0q6.13,-0.26 12.4,-0.95q6.26,-0.69 10.25,-1.86l0,0l1.88,1.98q-4.39,1.27 -10.46,1.97l0,0l0,5.43l11.86,0l0,2.38l-11.86,0l0,5.43z"/>
       <path id="svg_38" data-glyph-descender="-4.0212" data-glyph-ascender="29.4888" data-glyph-h="33.51" data-glyph-w="33.51" stroke-width="0.056" stroke="rgb(8, 12, 36)" fill="rgb(8, 12, 36)" d="m273.34001,136.12l0,0l-0.74,-1.78q3.92,-1.58 4.23,-4.93l0,0q-0.27,0.04 -0.57,0.04l0,0q-1.04,0 -1.78,-0.61q-0.74,-0.6 -0.74,-1.77l0,0q0,-1.17 0.76,-1.79q0.75,-0.62 1.79,-0.62l0,0q1.37,0 2.11,1.03q0.74,1.04 0.74,2.82l0,0q0,2.71 -1.56,4.69q-1.56,1.98 -4.24,2.92z"/>
       <path id="svg_37" data-glyph-descender="-4.0212" data-glyph-ascender="29.4888" data-glyph-h="13.51" data-glyph-w="33.51" stroke-width="0.056" stroke="rgb(8, 12, 36)" fill="rgb(8, 12, 36)" d="m319.74998,116.95l0,5.56l9.02,0l0,-5.56l-9.02,0zm-10.62,5.56l0,0l8.14,0l0,-5.56l-8.01,0l0,1.97q0,1.65 -0.13,3.59zm8.14,-7.91l0,-5.36l-8.01,0l0,5.36l8.01,0zm2.48,0l9.02,0l0,-5.36l-9.02,0l0,5.36zm-12.93,-7.74l24.39,0l0,24.87q0,1.2 -0.35,1.84q-0.35,0.64 -1.16,0.94l0,0q-1.6,0.53 -6.23,0.4l0,0q-0.1,-0.54 -0.33,-1.21q-0.24,-0.67 -0.51,-1.2l0,0q1.55,0.06 2.84,0.06q1.29,0 2.02,0l0,0q0.24,0 0.37,0l0,0q0.5,-0.03 0.71,-0.21q0.2,-0.19 0.2,-0.66l0,0l0,-6.8l-9.02,0l0,9.89l-2.48,0l0,-9.89l-8.37,0q-0.37,2.81 -1.35,5.51q-0.97,2.7 -2.84,4.88l0,0q-0.31,-0.4 -0.89,-0.89q-0.59,-0.49 -1.02,-0.75l0,0q1.81,-2.12 2.68,-4.63q0.87,-2.51 1.1,-5.14q0.24,-2.63 0.24,-4.95l0,0l0,-12.06z"/>
       <path id="svg_36" data-glyph-descender="-4.0212" data-glyph-ascender="29.4888" data-glyph-h="33.51" data-glyph-w="33.51" stroke-width="0.056" stroke="rgb(8, 12, 36)" fill="rgb(8, 12, 36)" d="m344.34999,109.37l0,0l-2.08,0q-1.54,2.45 -3.32,4.16l0,0q-0.36,-0.34 -0.97,-0.74q-0.6,-0.4 -1.1,-0.63l0,0q3.51,-3.05 5.22,-7.74l0,0l2.38,0.56q-0.43,1.18 -1,2.28l0,0l8.04,0l0,2.11l-4.66,0q0.97,1.68 1.44,3.02l0,0l-2.18,0.84q-0.23,-0.77 -0.72,-1.83q-0.48,-1.05 -1.05,-2.03zm-3.15,25.71l-2.41,0l0,-17.7l2.41,0l0,17.7zm-0.67,-21.15l0,0l1.88,-1.2q1,0.97 1.96,2.11q0.95,1.14 1.49,2.04l0,0l-1.98,1.27q-0.47,-0.9 -1.41,-2.06q-0.94,-1.15 -1.94,-2.16zm15.45,9.85l0,-2.74l-8.21,0l0,2.74l8.21,0zm-8.21,1.85l0,2.95l8.21,0l0,-2.95l-8.21,0zm10.59,-6.54l0,11.46l-10.59,0l0,1.68l-2.32,0l0,-13.14l12.91,0zm-11.5,-5.39l18.1,0l0,18.39q0,1.11 -0.35,1.68q-0.36,0.57 -1.19,0.87l0,0q-1.48,0.44 -5.4,0.34l0,0q-0.33,0 -0.7,0l0,0q-0.1,-0.51 -0.34,-1.09q-0.23,-0.59 -0.5,-1.09l0,0q1.84,0.03 3.23,0.03q1.39,0 1.96,-0.03l0,0q0.51,0 0.67,-0.15q0.17,-0.15 0.17,-0.56l0,0l0,-16.15l-15.65,0l0,-2.24zm9.69,-6.44l0,0l9.58,0l0,2.11l-5.39,0q1.1,1.61 1.64,2.89l0,0l-2.18,0.97q-0.3,-0.77 -0.89,-1.83q-0.59,-1.05 -1.29,-2.03l0,0l-2.55,0q-1.2,2.12 -2.64,3.56l0,0q-0.37,-0.3 -0.96,-0.71q-0.58,-0.4 -1.05,-0.67l0,0q2.88,-2.81 4.22,-7.1l0,0l2.34,0.53q-0.3,1.18 -0.83,2.28z"/>
       <path id="svg_35" data-glyph-descender="-4.0212" data-glyph-ascender="29.4888" data-glyph-h="33.51" data-glyph-w="33.51" stroke-width="0.056" stroke="rgb(8, 12, 36)" fill="rgb(8, 12, 36)" d="m376.12,117.92l0,3.59l7.9,0l0,-3.59l-7.9,0zm7.9,-5.53l-7.9,0l0,3.52l7.9,0l0,-3.52zm2.52,3.52l8.31,0l0,-3.52l-8.31,0l0,3.52zm0,5.6l8.31,0l0,-3.59l-8.31,0l0,3.59zm0,5.29l13.7,0l0,2.31l-13.7,0l0,5.97l-2.52,0l0,-5.97l-13.5,0l0,-2.31l13.5,0l0,-3.18l-10.35,0l0,-13.34l6.17,0q-0.57,-1.04 -1.45,-2.3q-0.87,-1.25 -1.8,-2.33l0,0l2.07,-1q1.08,1.17 2.08,2.51q1.01,1.34 1.54,2.42l0,0l-1.37,0.7l8.07,0q0.91,-1.24 1.81,-2.78q0.91,-1.54 1.55,-2.85l0,0l2.64,0.9q-1.54,2.48 -3.21,4.73l0,0l5.59,0l0,13.34l-10.82,0l0,3.18z"/>
       <path id="svg_34" data-glyph-descender="-4.0212" data-glyph-ascender="29.4888" data-glyph-h="33.51" data-glyph-w="33.51" stroke-width="0.056" stroke="rgb(8, 12, 36)" fill="rgb(8, 12, 36)" d="m410.12998,122.95l17.39,0l0,-5.97l-17.39,0l0,5.97zm9.72,-8.31l10.18,0l0,10.65l-22.28,0l0,-10.65l9.62,0l0,-10.16l2.48,0l0,3.59l12.66,0l0,2.34l-12.66,0l0,4.23zm-13.94,20.44l0,0l-2.28,-1.11q2.81,-2.61 4.56,-6.67l0,0l2.34,0.61q-1.78,4.22 -4.62,7.17zm7.64,-6.87l0,0l2.38,-0.2q0.33,1.64 0.57,3.41q0.23,1.78 0.26,3.05l0,0l-2.48,0.34q0,-1.27 -0.2,-3.1q-0.2,-1.83 -0.53,-3.5zm6.87,0.03l0,0l2.24,-0.5q0.81,1.57 1.49,3.33q0.69,1.76 1.02,3.07l0,0l-2.41,0.57q-0.27,-1.31 -0.92,-3.1q-0.65,-1.79 -1.42,-3.37zm6.8,-0.3l0,0l2.18,-0.84q1.3,1.64 2.54,3.49q1.24,1.84 1.91,3.28l0,0l-2.34,0.94q-0.6,-1.44 -1.79,-3.32q-1.19,-1.88 -2.5,-3.55z"/>
       <path id="svg_33" data-glyph-descender="-4.0212" data-glyph-ascender="29.4888" data-glyph-h="33.51" data-glyph-w="33.51" stroke-width="0.056" stroke="rgb(8, 12, 36)" fill="rgb(8, 12, 36)" d="m440.91999,119.09l7.04,0l0,-7l-7.04,0l0,7zm0,2.21l0,8.05l7.04,0l0,-8.05l-7.04,0zm2.82,-16.88l0,0l2.68,0.5q-0.2,0.63 -0.44,1.27l0,0q-0.67,1.98 -1.3,3.65l0,0l5.56,0l0,21.75l-9.32,0l0,2.65l-2.27,0l0,-24.4l3.75,0q0.4,-1.24 0.77,-2.73q0.37,-1.49 0.57,-2.69zm12.87,5.32l10.02,0l0,1.28q-0.37,11.26 -0.86,16.15q-0.48,4.89 -1.46,5.93l0,0q-1,1.31 -2.64,1.34l0,0q-1.95,0.17 -4.96,-0.03l0,0q-0.07,-0.57 -0.27,-1.24q-0.2,-0.67 -0.57,-1.21l0,0q1.68,0.13 3.03,0.17q1.36,0.03 1.93,0.03l0,0q0.5,0 0.82,-0.1q0.32,-0.1 0.55,-0.4l0,0q0.81,-0.74 1.28,-5.25q0.47,-4.5 0.77,-14.35l0,0l-8.51,0q-1.41,3.41 -3.15,5.86l0,0q-0.37,-0.34 -0.99,-0.74q-0.62,-0.4 -1.06,-0.67l0,0q3.45,-4.86 5.13,-12.16l0,0l2.38,0.57q-0.6,2.44 -1.44,4.82l0,0zm4.72,15.08l0,0l-2.11,1.31q-0.8,-1.58 -2.23,-3.72q-1.42,-2.14 -2.86,-4.02l0,0l1.94,-1.14q1.48,1.84 2.93,3.94q1.46,2.09 2.33,3.63z"/>
       <path id="svg_32" data-glyph-descender="-4.0212" data-glyph-ascender="29.4888" data-glyph-h="33.51" data-glyph-w="33.51" stroke-width="0.056" stroke="rgb(8, 12, 36)" fill="rgb(8, 12, 36)" d="m500.37,110.28l0,2.45l-17.02,0q-0.14,2.61 -0.47,5.29l0,0l14.24,0q0,0 0,0.13q0,0.14 -0.02,0.34q-0.01,0.2 -0.03,0.4q-0.02,0.2 -0.05,0.34l0,0q-0.47,6.93 -1.06,10.2q-0.58,3.27 -1.55,4.14l0,0q-0.57,0.6 -1.24,0.85q-0.67,0.25 -1.65,0.32l0,0q-1.97,0.1 -5.59,-0.13l0,0q-0.07,-0.57 -0.29,-1.23q-0.21,-0.65 -0.58,-1.19l0,0q1.84,0.14 3.4,0.19q1.56,0.05 2.19,0.05l0,0q1.18,0 1.58,-0.37l0,0q1.44,-0.8 2.21,-11.63l0,0l-11.93,0q-0.74,4.49 -2.98,8.35q-2.25,3.85 -6.9,6.43l0,0q-0.31,-0.54 -0.81,-1.09q-0.5,-0.55 -1,-0.92l0,0q4.22,-2.18 6.26,-5.5q2.05,-3.31 2.72,-7.22q0.67,-3.9 0.8,-7.75l0,0l-9.05,0l0,-2.45l14.65,0q-0.34,-1.04 -0.98,-2.43q-0.63,-1.39 -1.3,-2.6l0,0l2.38,-0.94q0.7,1.21 1.37,2.55q0.67,1.34 1.04,2.41l0,0l-2.31,1.01l13.97,0z"/>
       <path id="svg_31" data-glyph-descender="-4.0212" data-glyph-ascender="29.4888" data-glyph-h="33.51" data-glyph-w="33.51" stroke-width="0.056" stroke="rgb(8, 12, 36)" fill="rgb(8, 12, 36)" d="m532.88001,108.74l0,0l-1.75,1.57q-0.77,-0.9 -2.09,-2.07q-1.32,-1.18 -2.66,-2.12l0,0l1.67,-1.37q1.34,0.9 2.68,1.99q1.34,1.09 2.15,2zm-12.4,11.79l-6.27,0l0,9.19q1.44,-0.31 2.95,-0.61l0,0q2.11,-0.43 4.22,-0.9l0,0l0.2,2.21q-9.08,2.14 -16.05,3.68l0,0l-0.77,-2.44q1.64,-0.34 3.75,-0.74l0,0q1.55,-0.33 3.25,-0.67l0,0l0,-9.72l-5.96,0l0,-2.41l14.68,0l0,2.41zm13.77,-9.82l0,2.45l-9.78,0q0.43,5.66 1.39,10.02q0.95,4.36 2.34,6.87q1.39,2.51 3.03,2.51l0,0q1.38,0 1.51,-6.3l0,0q0.44,0.44 1.06,0.81q0.62,0.37 1.15,0.57l0,0q-0.3,4.29 -1.15,5.9q-0.86,1.6 -2.77,1.6l0,0q-2.71,0 -4.57,-2.91q-1.86,-2.92 -2.98,-7.88q-1.13,-4.96 -1.56,-11.19l0,0l-17.29,0l0,-2.45l17.12,0q-0.13,-2.98 -0.17,-6.06l0,0l2.62,0q0,3.12 0.13,6.06l0,0l9.92,0z"/>
       <path id="svg_30" data-glyph-descender="-4.0212" data-glyph-ascender="29.4888" data-glyph-h="33.51" data-glyph-w="33.51" stroke-width="0.056" stroke="rgb(8, 12, 36)" fill="rgb(8, 12, 36)" d="m554.25999,123.11l0,8.52l13.57,0l0,2.41l-29.69,0l0,-2.41l13.57,0l0,-8.52l-9.95,0l0,-2.41l9.95,0l0,-7.3l-7.88,0q-1.6,3.18 -3.51,5.46l0,0q-0.37,-0.34 -1.04,-0.77q-0.67,-0.44 -1.21,-0.71l0,0q4.19,-4.82 6.2,-12.33l0,0l2.51,0.54q-0.77,2.78 -1.87,5.36l0,0l6.8,0l0,-6.43l2.55,0l0,6.43l11.99,0l0,2.45l-11.99,0l0,7.3l10.75,0l0,2.41l-10.75,0z"/>
       <path id="svg_29" data-glyph-descender="-4.0212" data-glyph-ascender="29.4888" data-glyph-h="33.51" data-glyph-w="33.51" stroke-width="0.056" stroke="rgb(8, 12, 36)" fill="rgb(8, 12, 36)" d="m592.11997,106.16l0,0l1.48,-1.51q1.6,0.8 3.28,1.86q1.68,1.06 2.71,1.96l0,0l-1.54,1.71q-1,-0.91 -2.64,-2.01q-1.65,-1.11 -3.29,-2.01zm4.76,9.05l0,0l2.51,0.63q-2.17,6.5 -5.89,11.33l0,0q1.94,5.19 4.49,5.19l0,0q0.7,0 1.05,-1.44q0.35,-1.44 0.52,-4.76l0,0q0.44,0.44 1.02,0.81q0.59,0.37 1.13,0.53l0,0q-0.31,4.19 -1.16,5.77q-0.86,1.57 -2.77,1.57l0,0q-1.94,0 -3.46,-1.44q-1.53,-1.44 -2.67,-4.05l0,0q-3.01,3.28 -6.9,5.56l0,0q-0.3,-0.4 -0.82,-1.01q-0.52,-0.6 -0.99,-0.97l0,0q4.49,-2.41 7.71,-6.2l0,0q-1.81,-5.86 -2.45,-14.1l0,0l-11.56,0l0,4.35l8.55,0l0,1.07q-0.11,5.53 -0.34,8.08q-0.23,2.55 -0.74,3.12l0,0q-0.67,0.87 -2.01,0.97l0,0q-1.37,0.1 -3.99,0l0,0q-0.06,-1.28 -0.7,-2.35l0,0q1.17,0.1 2.15,0.14q0.97,0.03 1.4,0.03l0,0q0.71,0 1.01,-0.37l0,0q0.33,-0.3 0.5,-2.21q0.17,-1.91 0.27,-6.17l0,0l-6.1,0l0,0.27q0,2.35 -0.25,5.2q-0.25,2.84 -1.02,5.61q-0.77,2.76 -2.25,4.97l0,0q-0.37,-0.4 -0.99,-0.9q-0.62,-0.5 -1.09,-0.77l0,0q1.34,-2.08 2.01,-4.52q0.67,-2.45 0.86,-4.96q0.18,-2.52 0.18,-4.66l0,0l0,-9.35l13.98,0q-0.17,-2.78 -0.2,-5.63l0,0l2.58,0q0,2.91 0.13,5.63l0,0l10.82,0l0,2.45l-10.65,0q0.5,6.76 1.84,11.62l0,0q2.72,-3.98 4.29,-9.04z"/>
       <path id="svg_28" data-glyph-descender="-4.0212" data-glyph-ascender="29.4888" data-glyph-h="33.51" data-glyph-w="33.51" stroke-width="0.056" stroke="rgb(8, 12, 36)" fill="rgb(8, 12, 36)" d="m618.75998,123.08l0,0l0,-6l2.52,0l0,6.03q0,1.71 -0.51,3.4q-0.5,1.7 -2.02,3.26q-1.53,1.55 -4.48,2.93q-2.95,1.37 -7.77,2.44l0,0q-0.24,-0.47 -0.66,-1.05q-0.41,-0.59 -0.85,-1.02l0,0q4.59,-0.94 7.37,-2.11q2.78,-1.18 4.16,-2.48q1.37,-1.31 1.81,-2.69q0.43,-1.37 0.43,-2.71zm2.68,5.73l0,0l1.41,-1.71q2.98,1.31 6.2,3q3.22,1.69 5.23,3.13l0,0l-1.54,1.98q-1.95,-1.47 -5.11,-3.25q-3.17,-1.78 -6.19,-3.15zm-15.68,-20.14l0,-2.34l28.62,0l0,2.34l-13.31,0q-0.9,2.15 -1.84,3.99l0,0l11.96,0l0,15.48l-2.61,0l0,-13.17l-17.06,0l0,13.24l-2.48,0l0,-15.55l7.68,0q0.87,-1.91 1.54,-3.99l0,0l-12.5,0z"/>
       <path id="svg_27" data-glyph-descender="-4.0212" data-glyph-ascender="29.4888" data-glyph-h="33.51" data-glyph-w="33.51" stroke-width="0.056" stroke="rgb(8, 12, 36)" fill="rgb(8, 12, 36)" d="m659.06999,131.02l5.03,0l0,-15.41l-5.03,0l0,15.41zm-11.62,-15.41l-4.76,0l0,15.41l4.76,0l0,-15.41zm2.28,3.68l7.07,0l0,-3.68l-7.07,0l0,3.68zm7.07,7.84l-7.07,0l0,3.89l7.07,0l0,-3.89zm-7.07,-2.04l7.07,0l0,-3.75l-7.07,0l0,3.75zm18.49,-18.36l0,2.38l-13.74,0q-0.63,2.17 -1.3,4.19l0,0l13.43,0l0,21.81l-2.51,0l0,-1.78l-21.41,0l0,1.78l-2.41,0l0,-21.81l10.35,0q0.57,-2.02 0.97,-4.19l0,0l-12.83,0l0,-2.38l29.45,0z"/>
      </g>
     </svg>
    </g>
   </g>
  </g>
 </g>
</svg>