<?xml version="1.0" standalone="no"?><!DOCTYPE svg PUBLIC "-//W3C//DTD SVG 1.1//EN" "http://www.w3.org/Graphics/SVG/1.1/DTD/svg11.dtd" [<!ENTITY nbsp " ">]><svg data-noselect="" viewBox="115 -49.0176135231863 938.2336566971101 703.6752425228326" width="938.2336566971101" ref="svg_canvas" height="703.6752425228326" preserveAspectRatio="none" version="1.1" xmlns="http://www.w3.org/2000/svg" style="background: #ffffff;">
    <def></def>
    <g id="shape_tDKxdcduu2" ref="shape_tDKxdcduu2" key="shape_tDKxdcduu2" transform="translate(195,215) rotate(0,71.353290901515,71.353290901515) scale(1,1)" style="cursor:move;display:inline;opacity:1;" filter="">
            <g style="display:inline"><rect fill="rgba(0,0,0,0)" width="162.70658180303" height="162.70658180303" x="-10" y="-10"></rect><svg version="1.1" id="图层_1" xmlns="http://www.w3.org/2000/svg" xmlns:xlink="http://www.w3.org/1999/xlink" x="0px" y="0px" width="142.70658180303" height="142.70658180303" viewBox="0 0 100 100" enable-background="new 0 0 100 100" xml:space="preserve" shapetype="ellipse" preserveAspectRatio="none" class="style-removed" data-parent="shape_tDKxdcduu2">
	 <linearGradient class="" x1="0%" y1="0%" x2="0%" y2="100%" gradientTransform="translate(0.5,0.5) rotate(0) translate(-0.5,-0.5)">
		<stop id="stop1_4NyrrmMbYp_c" offset="0%" class="" stop-color="#05a"></stop>
		<stop id="stop2_dVjGsOQpgg_c" offset="100%" class="" stop-color="#0a5"></stop>
	</linearGradient>

	<radialGradient class="" cx="50%" cy="50%" r="50%" fx="50%" fy="50%">
		<stop offset="0%" class="" stop-color="#05a"></stop>
		<stop offset="100%" class="" stop-color="#0a5"></stop>
	</radialGradient>
	<clipPath id="f_ellipse_o5UjVSZdth_c" class="">
		<ellipse fill="none" class="" stroke="#FF4C1B" stroke-width="1" stroke-miterlimit="10" cx="50" cy="50" rx="50" ry="50"></ellipse>
	</clipPath>
	<ellipse class="" fill="#FF4C1B" opacity="1" cx="50" cy="50" rx="49" ry="49"></ellipse>
	<ellipse class="" fill="none" stroke="#FF4C1B" stroke-width="0" stroke-miterlimit="10" cx="50" cy="50" rx="50" ry="50" clip-path="url(#f_ellipse_o5UjVSZdth_c)"></ellipse>
</svg></g>
        </g><g id="shape_dTulsl9mQK" ref="shape_dTulsl9mQK" key="shape_dTulsl9mQK" transform="translate(299.28193031744,234.71579104104) rotate(0,8.6905798157943,8.6905798157943) scale(1,1)" style="cursor:move;display:inline;opacity:1;" filter="">
            <g style="display:inline"><rect fill="rgba(0,0,0,0)" width="37.381159631589" height="37.381159631589" x="-10" y="-10"></rect><svg version="1.1" id="图层_1" xmlns="http://www.w3.org/2000/svg" xmlns:xlink="http://www.w3.org/1999/xlink" x="0px" y="0px" width="17.381159631589" height="17.381159631589" viewBox="0 0 100 100" enable-background="new 0 0 100 100" xml:space="preserve" shapetype="ellipse" preserveAspectRatio="none" class="style-removed" data-parent="shape_dTulsl9mQK">
	 <linearGradient class="" x1="0%" y1="0%" x2="0%" y2="100%" gradientTransform="translate(0.5,0.5) rotate(0) translate(-0.5,-0.5)">
		<stop id="stop1_blWpR6owon_c" offset="0%" class="" stop-color="#05a"></stop>
		<stop id="stop2_2WMJdCPnIG_c" offset="100%" class="" stop-color="#0a5"></stop>
	</linearGradient>

	<radialGradient class="" cx="50%" cy="50%" r="50%" fx="50%" fy="50%">
		<stop offset="0%" class="" stop-color="#05a"></stop>
		<stop offset="100%" class="" stop-color="#0a5"></stop>
	</radialGradient>
	<clipPath id="f_ellipse_HiB3cgO7t4_c" class="">
		<ellipse fill="none" class="" stroke="#dddddd" stroke-width="1" stroke-miterlimit="10" cx="50" cy="50" rx="50" ry="50"></ellipse>
	</clipPath>
	<ellipse class="" fill="#FFFFFF" opacity="1" cx="50" cy="50" rx="49" ry="49"></ellipse>
	<ellipse class="" fill="none" stroke="#dddddd" stroke-width="0" stroke-miterlimit="10" cx="50" cy="50" rx="50" ry="50" clip-path="url(#f_ellipse_HiB3cgO7t4_c)"></ellipse>
</svg></g>
        </g><g id="shape_QVcmHQPsq7" ref="shape_QVcmHQPsq7" key="shape_QVcmHQPsq7" transform="translate(80.29999573943999,-223.09493452354002) rotate(0,191.659256816392,534.477617128739) scale(1,1)" style="cursor:move;display:inline;opacity:1;" filter="">
            <g style="display:inline"><svg xmlns="http://www.w3.org/2000/svg" version="1.1" xmlns:xlink="http://www.w3.org/1999/xlink" width="640.08" height="1068.4699" viewBox="0 0 640.08 1068.4699" preserveAspectRatio="none" data-parent="shape_QVcmHQPsq7"><rect fill="rgba(0,0,0,0)" width="107" height="159" x="133.27" y="454.73495"></rect><g data-width="106.21619" transform="translate(133.66190500000002, 0)"><path d="M64.50-19.86L64.50-19.86Q62.77-18.39 60.04-17.53Q57.31-16.66 53.71-16.66L53.71-16.66Q48.91-16.66 45.78-17.86Q42.65-19.06 41.71-21.99L41.71-21.99Q37.98-33.72 35.58-40.98Q33.18-48.24 31.85-53.71L31.85-53.71L31.19-53.71Q30.79-45.84 30.59-39.38Q30.39-32.92 30.32-26.79Q30.25-20.66 30.05-14.39Q29.85-8.13 29.45-0.53L29.45-0.53Q27.72 0.13 24.92 0.60Q22.12 1.07 19.32 1.07L19.32 1.07Q13.46 1.07 10.20-0.80Q6.93-2.67 6.93-7.60L6.93-7.60L10.79-75.56Q11.86-77.30 15.46-79.30Q19.06-81.29 25.59-81.29L25.59-81.29Q32.65-81.29 36.65-79.10Q40.65-76.90 42.51-71.97L42.51-71.97Q43.71-68.77 45.11-64.64Q46.51-60.50 47.91-56.11Q49.31-51.71 50.64-47.38Q51.98-43.05 53.04-39.58L53.04-39.58L53.71-39.58Q56.91-50.78 60.10-61.24Q63.30-71.70 65.97-78.76L65.97-78.76Q67.97-79.83 71.10-80.56Q74.23-81.29 78.10-81.29L78.10-81.29Q84.63-81.29 88.76-79.36Q92.89-77.43 93.56-73.83L93.56-73.83Q94.09-71.17 94.69-65.64Q95.29-60.10 95.95-53.17Q96.62-46.24 97.29-38.52Q97.95-30.79 98.55-23.66Q99.15-16.53 99.55-10.59Q99.95-4.66 100.09-1.47L100.09-1.47Q97.82-0.13 95.35 0.47Q92.89 1.07 89.02 1.07L89.02 1.07Q83.96 1.07 80.50-0.67Q77.03-2.40 76.76-7.46L76.76-7.46Q75.96-21.99 75.76-33.58Q75.56-45.18 75.16-53.04L75.16-53.04L74.50-53.04Q73.17-47.84 70.63-39.98Q68.10-32.12 64.50-19.86Z" transform="translate(0 557.73495) " fill="rgb(255, 255, 255)" stroke="rgb(255, 255, 255)" stroke-width="0.222" data-glyph-w="106.21619" data-glyph-h="268.13924" data-glyph-ascender="157.92495" data-glyph-descender="-110.21429"></path></g></svg></g>
        </g><g id="shape_wifAVftsRN" ref="shape_wifAVftsRN" key="shape_wifAVftsRN" transform="translate(236.17365669711,-163.62528817836997) rotate(0,252.61756103921,457.3411) scale(1,1)" style="cursor:move;display:inline;opacity:1;" filter="">
            <g style="display:inline"><svg xmlns="http://www.w3.org/2000/svg" version="1.1" xmlns:xlink="http://www.w3.org/1999/xlink" width="1079.24" height="914.6822" viewBox="0 0 1079.24 914.6822" preserveAspectRatio="none" data-parent="shape_wifAVftsRN"><rect fill="rgba(0,0,0,0)" width="623" height="136" x="114.06" y="389.3411"></rect><g data-width="622.1972999999999" transform="translate(114.06, 0)"><path d="M32.51-57.14L32.51-57.14Q37.18-57.14 41.69-55.83Q46.19-54.52 49.50-51.90L49.50-51.90Q52.92-54.18 57.20-55.66Q61.48-57.14 67.52-57.14L67.52-57.14Q71.86-57.14 76.02-56.00Q80.18-54.86 83.43-52.41Q86.69-49.96 88.62-45.91Q90.56-41.86 90.56-36.04L90.56-36.04L90.56-0.11Q89.42 0.23 86.97 0.57Q84.52 0.91 81.90 0.91L81.90 0.91Q79.39 0.91 77.39 0.57Q75.39 0.23 74.02-0.80Q72.66-1.82 71.91-3.59Q71.17-5.36 71.17-8.21L71.17-8.21L71.17-35.47Q71.17-38.89 69.23-40.43Q67.30-41.97 63.99-41.97L63.99-41.97Q62.39-41.97 60.57-41.23Q58.74-40.49 57.83-39.69L57.83-39.69Q57.94-39.24 57.94-38.84Q57.94-38.44 57.94-38.10L57.94-38.10L57.94-0.11Q56.69 0.23 54.24 0.57Q51.78 0.91 49.27 0.91L49.27 0.91Q46.76 0.91 44.77 0.57Q42.77 0.23 41.40-0.80Q40.04-1.82 39.29-3.59Q38.55-5.36 38.55-8.21L38.55-8.21L38.55-35.47Q38.55-38.89 36.44-40.43Q34.33-41.97 31.37-41.97L31.37-41.97Q29.31-41.97 27.83-41.35Q26.35-40.72 25.32-40.15L25.32-40.15L25.32-0.11Q24.18 0.23 21.73 0.57Q19.28 0.91 16.65 0.91L16.65 0.91Q14.14 0.91 12.15 0.57Q10.15 0.23 8.78-0.80Q7.41-1.82 6.67-3.59Q5.93-5.36 5.93-8.21L5.93-8.21L5.93-42.66Q5.93-45.74 7.24-47.56Q8.55-49.39 10.84-50.98L10.84-50.98Q14.71-53.72 20.47-55.43Q26.23-57.14 32.51-57.14Z" transform="translate(0 477.3411) " fill="rgb(255, 76, 27)" stroke="rgb(255, 76, 27)" stroke-width="0.19" data-glyph-w="96.49476000000001" data-glyph-h="229.48872000000003" data-glyph-ascender="135.1611" data-glyph-descender="-94.32762000000001"></path><path d="M5.93-22.01L5.93-54.63Q7.07-54.98 9.52-55.32Q11.98-55.66 14.60-55.66L14.60-55.66Q17.11-55.66 19.11-55.32Q21.10-54.98 22.47-53.95Q23.84-52.92 24.58-51.16Q25.32-49.39 25.32-46.54L25.32-46.54L25.32-22.01Q25.32-17.34 27.60-15.34Q29.88-13.35 34.22-13.35L34.22-13.35Q36.84-13.35 38.50-13.80Q40.15-14.26 41.06-14.71L41.06-14.71L41.06-54.63Q42.20-54.98 44.65-55.32Q47.11-55.66 49.73-55.66L49.73-55.66Q52.24-55.66 54.24-55.32Q56.23-54.98 57.60-53.95Q58.97-52.92 59.71-51.16Q60.45-49.39 60.45-46.54L60.45-46.54L60.45-11.86Q60.45-6.16 55.66-3.31L55.66-3.31Q51.67-0.80 46.14 0.51Q40.61 1.82 34.10 1.82L34.10 1.82Q27.94 1.82 22.75 0.46Q17.57-0.91 13.80-3.76Q10.04-6.62 7.98-11.12Q5.93-15.63 5.93-22.01L5.93-22.01Z" transform="translate(96.49476000000001 477.3411) " fill="rgb(255, 76, 27)" stroke="rgb(255, 76, 27)" stroke-width="0.19" data-glyph-w="66.38292" data-glyph-h="229.48872000000003" data-glyph-ascender="135.1611" data-glyph-descender="-94.32762000000001"></path><path d="M32.51-57.14L32.51-57.14Q37.18-57.14 41.69-55.83Q46.19-54.52 49.50-51.90L49.50-51.90Q52.92-54.18 57.20-55.66Q61.48-57.14 67.52-57.14L67.52-57.14Q71.86-57.14 76.02-56.00Q80.18-54.86 83.43-52.41Q86.69-49.96 88.62-45.91Q90.56-41.86 90.56-36.04L90.56-36.04L90.56-0.11Q89.42 0.23 86.97 0.57Q84.52 0.91 81.90 0.91L81.90 0.91Q79.39 0.91 77.39 0.57Q75.39 0.23 74.02-0.80Q72.66-1.82 71.91-3.59Q71.17-5.36 71.17-8.21L71.17-8.21L71.17-35.47Q71.17-38.89 69.23-40.43Q67.30-41.97 63.99-41.97L63.99-41.97Q62.39-41.97 60.57-41.23Q58.74-40.49 57.83-39.69L57.83-39.69Q57.94-39.24 57.94-38.84Q57.94-38.44 57.94-38.10L57.94-38.10L57.94-0.11Q56.69 0.23 54.24 0.57Q51.78 0.91 49.27 0.91L49.27 0.91Q46.76 0.91 44.77 0.57Q42.77 0.23 41.40-0.80Q40.04-1.82 39.29-3.59Q38.55-5.36 38.55-8.21L38.55-8.21L38.55-35.47Q38.55-38.89 36.44-40.43Q34.33-41.97 31.37-41.97L31.37-41.97Q29.31-41.97 27.83-41.35Q26.35-40.72 25.32-40.15L25.32-40.15L25.32-0.11Q24.18 0.23 21.73 0.57Q19.28 0.91 16.65 0.91L16.65 0.91Q14.14 0.91 12.15 0.57Q10.15 0.23 8.78-0.80Q7.41-1.82 6.67-3.59Q5.93-5.36 5.93-8.21L5.93-8.21L5.93-42.66Q5.93-45.74 7.24-47.56Q8.55-49.39 10.84-50.98L10.84-50.98Q14.71-53.72 20.47-55.43Q26.23-57.14 32.51-57.14Z" transform="translate(162.87768 477.3411) " fill="rgb(255, 76, 27)" stroke="rgb(255, 76, 27)" stroke-width="0.19" data-glyph-w="96.49476000000001" data-glyph-h="229.48872000000003" data-glyph-ascender="135.1611" data-glyph-descender="-94.32762000000001"></path><path d="M5.93-22.01L5.93-54.63Q7.07-54.98 9.52-55.32Q11.98-55.66 14.60-55.66L14.60-55.66Q17.11-55.66 19.11-55.32Q21.10-54.98 22.47-53.95Q23.84-52.92 24.58-51.16Q25.32-49.39 25.32-46.54L25.32-46.54L25.32-22.01Q25.32-17.34 27.60-15.34Q29.88-13.35 34.22-13.35L34.22-13.35Q36.84-13.35 38.50-13.80Q40.15-14.26 41.06-14.71L41.06-14.71L41.06-54.63Q42.20-54.98 44.65-55.32Q47.11-55.66 49.73-55.66L49.73-55.66Q52.24-55.66 54.24-55.32Q56.23-54.98 57.60-53.95Q58.97-52.92 59.71-51.16Q60.45-49.39 60.45-46.54L60.45-46.54L60.45-11.86Q60.45-6.16 55.66-3.31L55.66-3.31Q51.67-0.80 46.14 0.51Q40.61 1.82 34.10 1.82L34.10 1.82Q27.94 1.82 22.75 0.46Q17.57-0.91 13.80-3.76Q10.04-6.62 7.98-11.12Q5.93-15.63 5.93-22.01L5.93-22.01Z" transform="translate(259.37244 477.3411) " fill="rgb(255, 76, 27)" stroke="rgb(255, 76, 27)" stroke-width="0.19" data-glyph-w="66.38292" data-glyph-h="229.48872000000003" data-glyph-ascender="135.1611" data-glyph-descender="-94.32762000000001"></path><path d="M30.00-21.22L5.59-21.22Q4.79-22.47 4.11-24.52Q3.42-26.58 3.42-28.86L3.42-28.86Q3.42-33.08 5.36-34.96Q7.30-36.84 10.38-36.84L10.38-36.84L34.79-36.84Q35.47-35.59 36.21-33.53Q36.96-31.48 36.96-29.20L36.96-29.20Q36.96-24.98 35.02-23.10Q33.08-21.22 30.00-21.22L30.00-21.22Z" transform="translate(325.75536 477.3411) " fill="rgb(255, 76, 27)" stroke="rgb(255, 76, 27)" stroke-width="0.19" data-glyph-w="40.37724" data-glyph-h="229.48872000000003" data-glyph-ascender="135.1611" data-glyph-descender="-94.32762000000001"></path><path d="M31.37-57.14L31.37-57.14Q38.21-57.14 44.08-55.38Q49.96-53.61 54.18-49.96Q58.40-46.31 60.79-40.78Q63.19-35.24 63.19-27.60L63.19-27.60Q63.19-20.30 61.14-14.83Q59.08-9.35 55.32-5.65Q51.56-1.94 46.25-0.11Q40.95 1.71 34.45 1.71L34.45 1.71Q29.54 1.71 25.32 0.23L25.32 0.23L25.32 19.16Q24.18 19.50 21.67 19.90Q19.16 20.30 16.54 20.30L16.54 20.30Q14.03 20.30 12.03 19.96Q10.04 19.62 8.67 18.59Q7.30 17.57 6.62 15.80Q5.93 14.03 5.93 11.18L5.93 11.18L5.93-43.57Q5.93-46.65 7.24-48.59Q8.55-50.53 10.84-52.13L10.84-52.13Q14.37-54.41 19.62-55.78Q24.87-57.14 31.37-57.14ZM31.59-13.57L31.59-13.57Q43.34-13.57 43.34-27.60L43.34-27.60Q43.34-34.90 40.43-38.44Q37.53-41.97 32.05-41.97L32.05-41.97Q29.88-41.97 28.17-41.46Q26.46-40.95 25.21-40.26L25.21-40.26L25.21-15.17Q26.58-14.49 28.17-14.03Q29.77-13.57 31.59-13.57Z" transform="translate(366.1326 477.3411) " fill="rgb(255, 76, 27)" stroke="rgb(255, 76, 27)" stroke-width="0.19" data-glyph-w="66.72510000000001" data-glyph-h="229.48872000000003" data-glyph-ascender="135.1611" data-glyph-descender="-94.32762000000001"></path><path d="M29.66-12.32L29.66-12.32Q31.59-12.32 33.93-12.72Q36.27-13.12 37.41-13.80L37.41-13.80L37.41-22.93L29.20-22.24Q26.01-22.01 23.95-20.87Q21.90-19.73 21.90-17.45L21.90-17.45Q21.90-15.17 23.67-13.74Q25.44-12.32 29.66-12.32ZM28.74-57.14L28.74-57.14Q34.90-57.14 39.98-55.89Q45.05-54.63 48.65-52.07Q52.24-49.50 54.18-45.57Q56.12-41.63 56.12-36.27L56.12-36.27L56.12-10.72Q56.12-7.76 54.46-5.87Q52.81-3.99 50.53-2.62L50.53-2.62Q43.11 1.82 29.66 1.82L29.66 1.82Q23.61 1.82 18.76 0.68Q13.92-0.46 10.44-2.74Q6.96-5.02 5.08-8.55Q3.19-12.09 3.19-16.77L3.19-16.77Q3.19-24.64 7.87-28.86Q12.55-33.08 22.36-34.10L22.36-34.10L37.30-35.70L37.30-36.50Q37.30-39.81 34.39-41.23Q31.48-42.66 26.01-42.66L26.01-42.66Q21.67-42.66 17.57-41.75Q13.46-40.83 10.15-39.46L10.15-39.46Q8.67-40.49 7.64-42.60Q6.62-44.71 6.62-46.99L6.62-46.99Q6.62-49.96 8.04-51.73Q9.47-53.49 12.43-54.75L12.43-54.75Q15.74-56.00 20.25-56.57Q24.75-57.14 28.74-57.14Z" transform="translate(432.8577 477.3411) " fill="rgb(255, 76, 27)" stroke="rgb(255, 76, 27)" stroke-width="0.19" data-glyph-w="62.048640000000006" data-glyph-h="229.48872000000003" data-glyph-ascender="135.1611" data-glyph-descender="-94.32762000000001"></path><path d="M32.96-57.14L32.96-57.14Q39.46-57.14 44.77-55.49Q50.07-53.84 53.72-51.21L53.72-51.21Q56.00-49.62 57.32-47.68Q58.63-45.74 58.63-42.66L58.63-42.66L58.63-2.74Q58.63 3.31 56.35 7.70Q54.06 12.09 50.13 15.00Q46.19 17.91 40.89 19.28Q35.59 20.64 29.54 20.64L29.54 20.64Q19.16 20.64 13.23 17.85Q7.30 15.06 7.30 8.78L7.30 8.78Q7.30 6.16 8.38 4.16Q9.47 2.17 10.84 1.14L10.84 1.14Q14.14 2.97 18.31 4.22Q22.47 5.47 26.92 5.47L26.92 5.47Q33.08 5.47 36.73 3.42Q40.38 1.37 40.38-3.19L40.38-3.19L40.38-5.02Q35.70-2.97 28.97-2.97L28.97-2.97Q23.84-2.97 19.22-4.51Q14.60-6.05 11.12-9.30Q7.64-12.55 5.53-17.68Q3.42-22.81 3.42-29.88L3.42-29.88Q3.42-36.84 5.65-41.97Q7.87-47.11 11.81-50.47Q15.74-53.84 21.16-55.49Q26.58-57.14 32.96-57.14ZM40.04-19.62L40.04-40.61Q39.24-41.06 37.70-41.52Q36.16-41.97 33.88-41.97L33.88-41.97Q28.29-41.97 25.49-38.84Q22.70-35.70 22.70-29.88L22.70-29.88Q22.70-23.27 25.49-20.36Q28.29-17.45 32.62-17.45L32.62-17.45Q37.30-17.45 40.04-19.62L40.04-19.62Z" transform="translate(494.90634 477.3411) " fill="rgb(255, 76, 27)" stroke="rgb(255, 76, 27)" stroke-width="0.19" data-glyph-w="64.67202" data-glyph-h="229.48872000000003" data-glyph-ascender="135.1611" data-glyph-descender="-94.32762000000001"></path><path d="M35.24 1.82L35.24 1.82Q28.52 1.82 22.75-0.06Q16.99-1.94 12.72-5.70Q8.44-9.47 5.99-15.17Q3.54-20.87 3.54-28.52L3.54-28.52Q3.54-36.04 5.99-41.46Q8.44-46.88 12.43-50.36Q16.42-53.84 21.56-55.49Q26.69-57.14 32.05-57.14L32.05-57.14Q38.10-57.14 43.06-55.32Q48.02-53.49 51.61-50.30Q55.21-47.11 57.20-42.66Q59.20-38.21 59.20-32.96L59.20-32.96Q59.20-29.09 57.03-27.03Q54.86-24.98 50.98-24.41L50.98-24.41L22.81-20.19Q24.07-16.42 27.94-14.54Q31.82-12.66 36.84-12.66L36.84-12.66Q41.52-12.66 45.68-13.86Q49.84-15.06 52.47-16.65L52.47-16.65Q54.29-15.51 55.55-13.46Q56.80-11.41 56.80-9.12L56.80-9.12Q56.80-3.99 52.01-1.48L52.01-1.48Q48.36 0.46 43.80 1.14Q39.24 1.82 35.24 1.82ZM32.05-43.00L32.05-43.00Q29.31-43.00 27.32-42.09Q25.32-41.18 24.07-39.75Q22.81-38.32 22.18-36.56Q21.56-34.79 21.44-32.96L21.44-32.96L40.95-36.16Q40.61-38.44 38.44-40.72Q36.27-43.00 32.05-43.00Z" transform="translate(559.57836 477.3411) " fill="rgb(255, 76, 27)" stroke="rgb(255, 76, 27)" stroke-width="0.19" data-glyph-w="62.61894" data-glyph-h="229.48872000000003" data-glyph-ascender="135.1611" data-glyph-descender="-94.32762000000001"></path></g></svg></g>
        </g>
  </svg>