<?xml version="1.0" standalone="no"?><!DOCTYPE svg PUBLIC "-//W3C//DTD SVG 1.1//EN" "http://www.w3.org/Graphics/SVG/1.1/DTD/svg11.dtd" [<!ENTITY nbsp " ">]><svg data-noselect="" viewBox="18 -62.07787935510373 1018.97607178465 764.2320538384874" width="1018.97607178465" ref="svg_canvas" height="764.2320538384874" preserveAspectRatio="none" version="1.1" xmlns="http://www.w3.org/2000/svg" style="background: #ffffff;">
    <def></def>
    <g id="shape_OYqKI1CcvR" ref="shape_OYqKI1CcvR" key="shape_OYqKI1CcvR" transform="translate(98,221.99133300781) rotate(0,108.60119641077,82.820180536822) scale(1,1)" style="cursor:move;display:inline;opacity:1;" filter="">
            <g style="display:inline"><rect fill="rgba(0,0,0,0)" width="237.20239282154" height="185.64036107364" x="-10" y="-10"></rect><svg version="1.1" id="图层_1" xmlns="http://www.w3.org/2000/svg" xmlns:xlink="http://www.w3.org/1999/xlink" x="0px" y="0px" width="217.20239282154" height="165.64036107364" viewBox="2.5 23.899999618530273 196.29998779296875 149.70001220703125" style="enable-background:new 0 0 200 200;" xml:space="preserve" class="style-removed" preserveAspectRatio="none" data-parent="shape_OYqKI1CcvR">

<path d="M2.5,173.5l15.7-55.8c1.9-6.7,8-11.3,14.9-11.3h77.7L95,162.3c-1.9,6.7-8,11.3-14.9,11.3H2.5z" fill="#0348FE" stroke-width="0"></path>
<path d="M50.3,50.5l6.2-22.1c0.7-2.6,3.2-4.5,5.9-4.5h30.7l-6.2,22.1c-0.7,2.6-3.2,4.5-5.9,4.5H50.3z" fill="#027DFF" stroke-width="0"></path>
<path d="M46.5,132.3l15.7-55.8c1.9-6.7,8-11.3,14.9-11.3h77.7L139.1,121c-1.9,6.7-8,11.3-14.9,11.3H46.5z" fill="#027DFF" stroke-width="0"></path>
<path d="M77.1,65.3c-6.9,0-13,4.6-14.9,11.3L90.5,91c0,0,7.3-25.8,7.3-25.8H77.1z" fill="#0507D9" stroke-width="0"></path>
<path d="M33.1,106.5c-6.9,0-13,4.6-14.9,11.3l28.3,14.5c0,0,7.3-25.8,7.3-25.8H33.1z" fill="#0507D9" stroke-width="0"></path>
<path d="M90.5,91l15.7-55.8c1.9-6.7,8-11.3,14.9-11.3h77.7l-15.7,55.8c-1.9,6.7-8,11.3-14.9,11.3H90.5z" fill="#0348FE" stroke-width="0"></path>
</svg></g>
        </g><g id="shape_PUimOcwDy2" ref="shape_PUimOcwDy2" key="shape_PUimOcwDy2" transform="translate(145.40153539381998,-51.67503787953001) rotate(0,331.50923230309,402.124745762712) scale(1,1)" style="cursor:move;display:inline;opacity:1;" filter="">
            <g style="display:inline"><svg xmlns="http://www.w3.org/2000/svg" version="1.1" xmlns:xlink="http://www.w3.org/1999/xlink" width="1133.6799999999998" height="805.52" viewBox="0 0 1133.6799999999998 805.52" preserveAspectRatio="none" data-parent="shape_PUimOcwDy2"><rect fill="rgba(0,0,0,0)" width="686" height="134" x="111.92" y="335.76"></rect><g data-width="685.7338400000001" transform="translate(111.92, 0)"><path d="M7.27-74.65L30.44-74.65L49.02-16.34L68.61-74.65L91.77-74.65L91.77 0L76.67 0L76.67-55.96L57.19 0L40.85 0L22.38-55.96L22.38 0L7.27 0L7.27-74.65Z" transform="translate(0 442.76) " fill="rgb(8, 12, 36)" stroke="rgb(8, 12, 36)" stroke-width="0.187" data-glyph-w="99.49688" data-glyph-h="111.92" data-glyph-ascender="96.13928" data-glyph-descender="-15.78072"></path><path d="M6.72-74.65L22.50-74.65L22.50-29.88Q22.50-24.51 23.39-21.54Q24.29-18.58 26.41-16.45L26.41-16.45Q31.11-11.86 39.51-11.86L39.51-11.86Q44.88-11.86 48.85-13.71Q52.83-15.56 54.39-18.69L54.39-18.69Q55.96-21.82 55.96-29.88L55.96-29.88L55.96-74.65L71.85-74.65L71.85-30.67Q71.85-21.94 70.01-16.28Q68.16-10.63 64.35-7.16L64.35-7.16Q55.51 0.56 39.28 0.56L39.28 0.56Q21.94 0.56 13.99-7.05L13.99-7.05Q9.85-10.97 8.28-15.84Q6.72-20.71 6.72-29.55L6.72-29.55L6.72-74.65Z" transform="translate(99.49688 442.76) " fill="rgb(8, 12, 36)" stroke="rgb(8, 12, 36)" stroke-width="0.187" data-glyph-w="78.67976" data-glyph-h="111.92" data-glyph-ascender="96.13928" data-glyph-descender="-15.78072"></path><path d="M7.27-74.65L30.44-74.65L49.02-16.34L68.61-74.65L91.77-74.65L91.77 0L76.67 0L76.67-55.96L57.19 0L40.85 0L22.38-55.96L22.38 0L7.27 0L7.27-74.65Z" transform="translate(178.17664000000002 442.76) " fill="rgb(8, 12, 36)" stroke="rgb(8, 12, 36)" stroke-width="0.187" data-glyph-w="99.49688" data-glyph-h="111.92" data-glyph-ascender="96.13928" data-glyph-descender="-15.78072"></path><path d="M6.72-74.65L22.50-74.65L22.50-29.88Q22.50-24.51 23.39-21.54Q24.29-18.58 26.41-16.45L26.41-16.45Q31.11-11.86 39.51-11.86L39.51-11.86Q44.88-11.86 48.85-13.71Q52.83-15.56 54.39-18.69L54.39-18.69Q55.96-21.82 55.96-29.88L55.96-29.88L55.96-74.65L71.85-74.65L71.85-30.67Q71.85-21.94 70.01-16.28Q68.16-10.63 64.35-7.16L64.35-7.16Q55.51 0.56 39.28 0.56L39.28 0.56Q21.94 0.56 13.99-7.05L13.99-7.05Q9.85-10.97 8.28-15.84Q6.72-20.71 6.72-29.55L6.72-29.55L6.72-74.65Z" transform="translate(277.67352000000005 442.76) " fill="rgb(8, 12, 36)" stroke="rgb(8, 12, 36)" stroke-width="0.187" data-glyph-w="78.67976" data-glyph-h="111.92" data-glyph-ascender="96.13928" data-glyph-descender="-15.78072"></path><path d="M0-35.59L26.08-35.59L26.08-22.16L0-22.16L0-35.59Z" transform="translate(356.35328000000004 442.76) " fill="rgb(8, 12, 36)" stroke="rgb(8, 12, 36)" stroke-width="0.187" data-glyph-w="26.077360000000002" data-glyph-h="111.92" data-glyph-ascender="96.13928" data-glyph-descender="-15.78072"></path><path d="M49.02-26.08L23.50-26.08L23.50 0L7.61 0L7.61-74.65L44.88-74.65Q55.06-74.65 59.43-73.20L59.43-73.20Q66.82-70.73 71.07-63.01L71.07-63.01Q74.20-57.19 74.20-50.36L74.20-50.36Q74.20-44.66 72.13-39.56Q70.06-34.47 66.37-31.23L66.37-31.23Q63.01-28.32 59.26-27.20Q55.51-26.08 49.02-26.08L49.02-26.08ZM23.50-61.33L23.50-39.40L45.10-39.40Q50.92-39.40 53.27-41.19L53.27-41.19Q56.74-43.98 56.74-50.92L56.74-50.92Q56.74-58.42 51.48-60.55L51.48-60.55Q49.58-61.33 45.44-61.33L45.44-61.33L23.50-61.33Z" transform="translate(382.43064000000004 442.76) " fill="rgb(8, 12, 36)" stroke="rgb(8, 12, 36)" stroke-width="0.187" data-glyph-w="76.6652" data-glyph-h="111.92" data-glyph-ascender="96.13928" data-glyph-descender="-15.78072"></path><path d="M18.91 0L0.34 0L31.23-74.65L49.47-74.65L80.36 0L61.78 0L54.51-17.24L26.19-17.24L18.91 0ZM51.04-30.55L40.40-56.63L29.77-30.55L51.04-30.55Z" transform="translate(459.09584000000007 442.76) " fill="rgb(8, 12, 36)" stroke="rgb(8, 12, 36)" stroke-width="0.187" data-glyph-w="80.80624" data-glyph-h="111.92" data-glyph-ascender="96.13928" data-glyph-descender="-15.78072"></path><path d="M35.03-31.00L35.03-44.32L71.63-44.32L71.63 0L38.28 0Q29.66 0 24.57-1.29Q19.47-2.57 15.33-5.82L15.33-5.82Q3.58-14.89 3.58-37.05L3.58-37.05Q3.58-51.48 9.18-61.11L9.18-61.11Q13.32-68.16 20.48-71.40Q27.64-74.65 39.06-74.65L39.06-74.65L71.63-74.65L71.63-61.33L40.85-61.33Q30.89-61.33 26.41-56.97L26.41-56.97Q21.04-51.82 21.04-38.50L21.04-38.50Q21.04-31.67 22.44-26.19Q23.84-20.71 26.30-18.02L26.30-18.02Q28.43-15.56 32.18-14.44Q35.93-13.32 41.41-13.32L41.41-13.32L55.85-13.32L55.85-31.00L35.03-31.00Z" transform="translate(539.9020800000001 442.76) " fill="rgb(8, 12, 36)" stroke="rgb(8, 12, 36)" stroke-width="0.187" data-glyph-w="77.33672" data-glyph-h="111.92" data-glyph-ascender="96.13928" data-glyph-descender="-15.78072"></path><path d="M36.82-74.65L63.57-74.65L63.57-61.33L42.87-61.33Q34.81-61.33 31.11-60.21Q27.42-59.09 24.96-55.85L24.96-55.85Q23.28-53.61 22.66-51.37Q22.05-49.13 21.60-43.76L21.60-43.76L63.57-43.76L63.57-30.44L21.60-30.44Q22.50-20.82 27.31-17.07Q32.12-13.32 43.65-13.32L43.65-13.32L63.57-13.32L63.57 0L42.87 0Q34.47 0 28.09-1.01L28.09-1.01Q18.02-2.69 12.09-9.85L12.09-9.85Q3.58-20.15 3.58-37.72L3.58-37.72Q3.58-57.19 15.56-68.05L15.56-68.05Q19.70-71.74 24.34-73.20Q28.99-74.65 36.82-74.65L36.82-74.65Z" transform="translate(617.2388000000001 442.76) " fill="rgb(8, 12, 36)" stroke="rgb(8, 12, 36)" stroke-width="0.187" data-glyph-w="68.49504" data-glyph-h="111.92" data-glyph-ascender="96.13928" data-glyph-descender="-15.78072"></path></g></svg></g>
        </g><g id="shape_2S9bfUBiMb" ref="shape_2S9bfUBiMb" key="shape_2S9bfUBiMb" transform="translate(286.46607178465,151.07007677651) rotate(0,175.52694915254,120.333160240394) scale(1,1)" style="cursor:move;display:inline;opacity:1;" filter="">
            <g style="display:inline"><svg xmlns="http://www.w3.org/2000/svg" version="1.1" xmlns:xlink="http://www.w3.org/1999/xlink" width="771.04" height="241.06" viewBox="0 0 771.04 241.06" preserveAspectRatio="none" data-parent="shape_2S9bfUBiMb"><rect fill="rgba(0,0,0,0)" width="637" height="40" x="33.51" y="100.53"></rect><g data-width="636.6899999999999" transform="translate(33.51, 0)"><path d="M8.01-22.05L25.33-22.05L25.33-24.76L8.01-24.76L8.01-22.05ZM8.01-17.53L25.33-17.53L25.33-20.24L8.01-20.24L8.01-17.53ZM5.56-26.67L27.81-26.67L27.81-15.62L5.56-15.62L5.56-26.67ZM29.32-5.19L18.26-5.19L18.26-0.64Q20.11-0.44 22.22-0.44L22.22-0.44Q22.85-0.44 24.91-0.44Q26.98-0.44 29.05-0.45Q31.13-0.47 32.10-0.47L32.10-0.47Q31.83 0 31.58 0.67Q31.33 1.34 31.23 1.91L31.23 1.91L22.12 1.91Q18.77 1.91 16.19 1.46Q13.61 1.01 11.68-0.22Q9.75-1.44 8.41-3.69L8.41-3.69Q6.47 0.20 3.18 2.61L3.18 2.61Q2.92 2.25 2.35 1.71Q1.78 1.17 1.34 0.84L1.34 0.84Q6.53-2.61 7.84-10.05L7.84-10.05L10.35-9.72Q9.99-7.98 9.48-6.37L9.48-6.37Q11.46-2.01 15.82-1.04L15.82-1.04L15.82-11.13L2.08-11.13L2.08-13.37L31.50-13.37L31.50-11.13L18.26-11.13L18.26-7.41L29.32-7.41L29.32-5.19Z" transform="translate(0 132.53) " fill="rgb(8, 12, 36)" stroke="rgb(8, 12, 36)" stroke-width="0.056" data-glyph-w="33.51" data-glyph-h="33.51" data-glyph-ascender="29.488799999999998" data-glyph-descender="-4.021199999999999"></path><path d="M10.89-15.68L10.89-22.99L5.19-22.99L5.19-15.68L10.89-15.68ZM5.19-13.44L5.19-5.86L10.89-5.86L10.89-13.44L5.19-13.44ZM2.85-25.23L13.24-25.23L13.24-3.59L5.19-3.59L5.19-0.94L2.85-0.94L2.85-25.23ZM28.05-21.35L32.10-21.35L32.10-18.90L28.05-18.90L28.05-1.14Q28.05 0.20 27.65 0.85Q27.24 1.51 26.37 1.78L26.37 1.78Q24.70 2.35 19.74 2.21L19.74 2.21Q19.64 1.68 19.39 0.97Q19.13 0.27 18.83-0.27L18.83-0.27Q20.81-0.23 22.42-0.22Q24.03-0.20 24.63-0.23L24.63-0.23Q25.13-0.23 25.35-0.44Q25.57-0.64 25.57-1.14L25.57-1.14L25.57-18.90L14.74-18.90L14.74-21.35L25.57-21.35L25.57-27.85L28.05-27.85L28.05-21.35ZM23.16-8.24L23.16-8.24L20.98-6.97Q20.11-8.58 18.68-10.86Q17.26-13.14 15.88-15.15L15.88-15.15L17.93-16.22Q19.30-14.24 20.79-12.03Q22.28-9.82 23.16-8.24Z" transform="translate(33.51 132.53) " fill="rgb(8, 12, 36)" stroke="rgb(8, 12, 36)" stroke-width="0.056" data-glyph-w="33.51" data-glyph-h="33.51" data-glyph-ascender="29.488799999999998" data-glyph-descender="-4.021199999999999"></path><path d="M27.98-20.31L31.73-20.31L31.73-18.16L13.54-18.16L13.54-20.31L25.60-20.31Q25.90-21.78 26.10-23.29L26.10-23.29Q26.20-23.79 26.27-24.29L26.27-24.29L15.41-24.29L15.41-26.41L26.74-26.41L27.14-26.54L28.85-26.34Q28.48-23.26 27.98-20.31L27.98-20.31ZM7.81-27.85L7.81-27.85L10.09-27.21Q8.98-23.42 7.34-19.84L7.34-19.84L7.34 2.61L4.96 2.61L4.96-15.25Q3.82-13.27 2.55-11.69L2.55-11.69Q2.38-12.16 1.98-12.95Q1.57-13.74 1.21-14.21L1.21-14.21Q5.46-19.70 7.81-27.85ZM12.20-3.92L10.02-3.92L10.02-20.84L12.20-20.84L12.20-3.92ZM31.80-8.31L31.80-6.13L24.26-6.13Q24.86-4.29 26.69-2.50Q28.52-0.70 32.34 0.34L32.34 0.34Q31.94 0.74 31.52 1.29Q31.10 1.84 30.86 2.38L30.86 2.38Q27.48 1.34 25.60-0.39Q23.73-2.11 22.82-4.02L22.82-4.02Q21.98-2.21 19.92-0.49Q17.86 1.24 14.14 2.65L14.14 2.65Q13.87 2.21 13.44 1.68Q13.00 1.14 12.57 0.80L12.57 0.80Q16.86-0.64 18.77-2.45Q20.68-4.26 21.11-6.13L21.11-6.13L13.61-6.13L13.61-8.31L21.45-8.31Q21.45-8.68 21.45-9.01L21.45-9.01L21.45-12.67L17.76-12.67Q16.62-10.56 15.28-9.01L15.28-9.01Q14.91-9.28 14.36-9.67Q13.81-10.05 13.34-10.32L13.34-10.32Q16.12-13.34 17.49-17.96L17.49-17.96L19.74-17.43Q19.34-16.05 18.77-14.78L18.77-14.78L30.70-14.78L30.70-12.67L23.89-12.67L23.89-8.98Q23.89-8.65 23.89-8.31L23.89-8.31L31.80-8.31Z" transform="translate(67.02 132.53) " fill="rgb(8, 12, 36)" stroke="rgb(8, 12, 36)" stroke-width="0.056" data-glyph-w="33.51" data-glyph-h="33.51" data-glyph-ascender="29.488799999999998" data-glyph-descender="-4.021199999999999"></path><path d="M10.66-11.73L10.66-7.31L13.67-7.31L13.67-11.73L10.66-11.73ZM5.80-7.31L5.80-7.31L8.85-7.31L8.85-11.73L5.90-11.73L5.90-10.69Q5.90-9.15 5.80-7.31ZM11.49-23.09L11.49-23.09L7.17-23.09Q6.40-21.25 5.50-19.60L5.50-19.60L9.99-19.60Q10.86-21.21 11.49-23.09ZM13.67-17.63L10.66-17.63L10.66-13.61L13.67-13.61L13.67-17.63ZM8.85-17.63L5.90-17.63L5.90-13.61L8.85-13.61L8.85-17.63ZM12.30-19.60L15.78-19.60L15.78-0.27Q15.78 1.34 14.84 1.84L14.84 1.84Q14.34 2.14 13.54 2.21Q12.73 2.28 11.46 2.28L11.46 2.28Q11.39 1.81 11.23 1.21Q11.06 0.60 10.79 0.13L10.79 0.13Q12.77 0.17 13.20 0.17L13.20 0.17Q13.47 0.17 13.57 0.07Q13.67-0.03 13.67-0.30L13.67-0.30L13.67-5.33L10.66-5.33L10.66 0.80L8.85 0.80L8.85-5.33L5.60-5.33Q5.19-0.87 3.08 2.68L3.08 2.68Q2.78 2.38 2.23 2.03Q1.68 1.68 1.27 1.51L1.27 1.51Q2.38-0.27 2.92-2.40Q3.45-4.52 3.60-6.69Q3.75-8.85 3.75-10.72L3.75-10.72L3.75-16.89Q3.59-16.65 3.38-16.45L3.38-16.45Q3.18-16.22 3.02-15.98L3.02-15.98Q2.71-16.29 2.16-16.72Q1.61-17.16 1.21-17.43L1.21-17.43Q4.79-21.61 6.43-28.05L6.43-28.05L8.68-27.58Q8.31-26.34 7.91-25.07L7.91-25.07L12.53-25.07L12.90-25.17L14.41-24.19Q13.50-21.85 12.30-19.60L12.30-19.60ZM28.79-24.23L28.79-24.23L23.89-24.23Q23.46-21.28 22.07-18.93Q20.68-16.59 17.76-15.15L17.76-15.15Q17.56-15.58 17.16-16.07Q16.75-16.55 16.39-16.89L16.39-16.89Q18.90-18.03 20.09-19.94Q21.28-21.85 21.65-24.23L21.65-24.23L17.09-24.23L17.09-26.34L31.13-26.34Q31.13-26.34 31.13-26.17Q31.13-26.00 31.11-25.77Q31.10-25.53 31.10-25.37L31.10-25.37Q30.90-21.31 30.61-19.39Q30.33-17.46 29.82-16.92L29.82-16.92Q29.19-16.15 28.01-16.08L28.01-16.08Q26.81-16.02 24.56-16.12L24.56-16.12Q24.53-16.62 24.38-17.19Q24.23-17.76 23.96-18.20L23.96-18.20Q24.96-18.10 25.80-18.08Q26.64-18.06 26.98-18.06L26.98-18.06Q27.31-18.03 27.55-18.08Q27.78-18.13 27.95-18.36L27.95-18.36Q28.18-18.67 28.40-20.01Q28.62-21.35 28.79-24.23ZM26.20-6.03L32.04-6.03L32.04-3.85L26.20-3.85L26.20 2.55L23.86 2.55L23.86-3.85L17.12-3.85L17.12-6.03L23.86-6.03L23.86-10.12L20.21-10.12Q19.44-8.24 18.46-6.87L18.46-6.87Q18.10-7.10 17.54-7.41Q16.99-7.71 16.55-7.91L16.55-7.91Q18.73-10.96 19.57-15.38L19.57-15.38L21.71-14.98Q21.45-13.74 21.04-12.53L21.04-12.53Q21.01-12.40 20.98-12.26L20.98-12.26L23.86-12.26L23.86-15.45L26.20-15.45L26.20-12.26L31.20-12.26L31.20-10.12L26.20-10.12L26.20-6.03Z" transform="translate(100.53 132.53) " fill="rgb(8, 12, 36)" stroke="rgb(8, 12, 36)" stroke-width="0.056" data-glyph-w="33.51" data-glyph-h="33.51" data-glyph-ascender="29.488799999999998" data-glyph-descender="-4.021199999999999"></path><path d="M10.96-23.62L10.96-23.62L8.71-22.89Q8.48-23.86 7.99-25.10Q7.51-26.34 7.00-27.44L7.00-27.44L9.15-28.08Q9.68-27.01 10.19-25.79Q10.69-24.56 10.96-23.62ZM7.91-20.31L7.91-15.85L14.88-15.85Q14.88-15.85 14.88-15.72Q14.88-15.58 14.88-15.40Q14.88-15.21 14.86-15.03Q14.84-14.84 14.84-14.71L14.84-14.71Q14.68-6.63 14.41-3.13Q14.14 0.37 13.54 1.11L13.54 1.11Q12.80 2.08 11.56 2.18L11.56 2.18Q10.19 2.31 7.98 2.18L7.98 2.18Q7.91 1.64 7.74 1.02Q7.57 0.40 7.31-0.13L7.31-0.13Q9.65 0.03 10.46 0.03L10.46 0.03Q11.13 0.03 11.43-0.44L11.43-0.44Q11.83-0.87 12.06-3.84Q12.30-6.80 12.43-13.57L12.43-13.57L7.91-13.57L7.91-13.34Q7.91-10.59 7.56-7.82Q7.20-5.06 6.10-2.45Q4.99 0.17 2.81 2.55L2.81 2.55Q2.48 2.14 1.96 1.69Q1.44 1.24 0.97 0.94L0.97 0.94Q2.98-1.24 3.95-3.65Q4.93-6.07 5.23-8.55Q5.53-11.02 5.53-13.37L5.53-13.37L5.53-20.31L1.57-20.31L1.57-22.62L16.35-22.62L16.35-20.31L7.91-20.31ZM27.18-19.50L27.18-19.50L20.91-19.50Q20.84-19.37 20.81-19.23L20.81-19.23Q20.78-19.20 20.78-19.17L20.78-19.17Q21.78-13.24 23.96-8.61L23.96-8.61Q26.27-13.10 27.18-19.50ZM32.10-21.82L32.10-19.50L29.66-19.50Q28.45-11.46 25.37-6.10L25.37-6.10Q28.05-1.78 32.40 0.37L32.40 0.37Q31.97 0.77 31.48 1.37Q31.00 1.98 30.66 2.51L30.66 2.51Q26.47 0.27 23.86-3.85L23.86-3.85Q20.88 0.10 15.92 2.65L15.92 2.65Q15.72 2.18 15.28 1.54Q14.84 0.90 14.48 0.47L14.48 0.47Q19.67-1.94 22.52-6.17L22.52-6.17Q20.51-10.29 19.27-15.48L19.27-15.48Q18.20-13.17 16.86-11.33L16.86-11.33Q16.52-11.69 15.95-12.26Q15.38-12.83 14.91-13.20L14.91-13.20Q16.96-15.92 18.35-19.80Q19.74-23.69 20.51-28.05L20.51-28.05L23.02-27.65Q22.45-24.66 21.65-21.82L21.65-21.82L32.10-21.82Z" transform="translate(134.04 132.53) " fill="rgb(8, 12, 36)" stroke="rgb(8, 12, 36)" stroke-width="0.056" data-glyph-w="33.51" data-glyph-h="33.51" data-glyph-ascender="29.488799999999998" data-glyph-descender="-4.021199999999999"></path><path d="M15.68-3.45L15.68-3.45L13.57-1.78Q12.53-4.16 10.56-7.20L10.56-7.20Q7.54-0.94 3.12 2.55L3.12 2.55Q2.81 2.08 2.31 1.51Q1.81 0.94 1.31 0.60L1.31 0.60Q5.93-2.78 8.91-9.68L8.91-9.68Q5.90-14.24 2.58-18.16L2.58-18.16L4.42-19.54Q7.24-16.22 10.02-12.43L10.02-12.43Q11.69-17.19 12.50-23.05L12.50-23.05L2.28-23.05L2.28-25.43L13.14-25.43L13.54-25.53L15.11-25.10Q14.24-16.25 11.76-9.99L11.76-9.99Q14.31-6.30 15.68-3.45ZM27.98-23.05L27.98-23.05L19.77-23.05Q20.81-15.28 23.42-9.38L23.42-9.38Q26.64-14.98 27.98-23.05ZM28.65-25.43L29.09-25.53L30.70-25.07Q29.22-13.57 24.80-6.70L24.80-6.70Q27.55-1.98 32.10 0.57L32.10 0.57Q31.63 0.94 31.15 1.54Q30.66 2.14 30.33 2.65L30.33 2.65Q25.97 0 23.22-4.42L23.22-4.42Q19.80 0 15.15 2.55L15.15 2.55Q14.88 2.04 14.41 1.42Q13.94 0.80 13.47 0.44L13.47 0.44Q18.33-1.94 21.85-6.94L21.85-6.94Q18.73-13.71 17.36-23.05L17.36-23.05L16.55-23.05L16.55-25.43L28.65-25.43Z" transform="translate(167.54999999999998 132.53) " fill="rgb(8, 12, 36)" stroke="rgb(8, 12, 36)" stroke-width="0.056" data-glyph-w="33.51" data-glyph-h="33.51" data-glyph-ascender="29.488799999999998" data-glyph-descender="-4.021199999999999"></path><path d="M18.06-10.79L31.80-10.79L31.80-8.34L18.06-8.34L18.06-0.90Q18.06 0.44 17.64 1.09Q17.22 1.74 16.29 2.01L16.29 2.01Q14.54 2.55 9.38 2.45L9.38 2.45Q9.22 1.88 8.91 1.19Q8.61 0.50 8.31-0.03L8.31-0.03Q10.52 0.03 12.18 0.03Q13.84 0.03 14.51 0L14.51 0Q15.62 0 15.55-0.94L15.55-0.94L15.55-8.34L1.78-8.34L1.78-10.79L15.55-10.79L15.55-16.22L4.02-16.22L4.02-18.60L15.55-18.60L15.55-23.76Q9.92-23.19 4.62-22.95L4.62-22.95Q4.56-23.49 4.37-24.11Q4.19-24.73 3.99-25.17L3.99-25.17Q10.12-25.43 16.39-26.12Q22.65-26.81 26.64-27.98L26.64-27.98L28.52-26.00Q24.13-24.73 18.06-24.03L18.06-24.03L18.06-18.60L29.92-18.60L29.92-16.22L18.06-16.22L18.06-10.79Z" transform="translate(201.05999999999997 132.53) " fill="rgb(8, 12, 36)" stroke="rgb(8, 12, 36)" stroke-width="0.056" data-glyph-w="33.51" data-glyph-h="33.51" data-glyph-ascender="29.488799999999998" data-glyph-descender="-4.021199999999999"></path><path d="M5.26 3.59L5.26 3.59L4.52 1.81Q8.44 0.23 8.75-3.12L8.75-3.12Q8.48-3.08 8.18-3.08L8.18-3.08Q7.14-3.08 6.40-3.69Q5.66-4.29 5.66-5.46L5.66-5.46Q5.66-6.63 6.42-7.25Q7.17-7.87 8.21-7.87L8.21-7.87Q9.58-7.87 10.32-6.84Q11.06-5.80 11.06-4.02L11.06-4.02Q11.06-1.31 9.50 0.67Q7.94 2.65 5.26 3.59Z" transform="translate(234.56999999999996 132.53) " fill="rgb(8, 12, 36)" stroke="rgb(8, 12, 36)" stroke-width="0.056" data-glyph-w="33.51" data-glyph-h="33.51" data-glyph-ascender="29.488799999999998" data-glyph-descender="-4.021199999999999"></path><path d="M18.16-15.58L18.16-10.02L27.18-10.02L27.18-15.58L18.16-15.58ZM7.54-10.02L7.54-10.02L15.68-10.02L15.68-15.58L7.67-15.58L7.67-13.61Q7.67-11.96 7.54-10.02ZM15.68-17.93L15.68-23.29L7.67-23.29L7.67-17.93L15.68-17.93ZM18.16-17.93L27.18-17.93L27.18-23.29L18.16-23.29L18.16-17.93ZM5.23-25.67L29.62-25.67L29.62-0.80Q29.62 0.40 29.27 1.04Q28.92 1.68 28.11 1.98L28.11 1.98Q26.51 2.51 21.88 2.38L21.88 2.38Q21.78 1.84 21.55 1.17Q21.31 0.50 21.04-0.03L21.04-0.03Q22.59 0.03 23.88 0.03Q25.17 0.03 25.90 0.03L25.90 0.03Q26.14 0.03 26.27 0.03L26.27 0.03Q26.77 0 26.98-0.18Q27.18-0.37 27.18-0.84L27.18-0.84L27.18-7.64L18.16-7.64L18.16 2.25L15.68 2.25L15.68-7.64L7.31-7.64Q6.94-4.83 5.96-2.13Q4.99 0.57 3.12 2.75L3.12 2.75Q2.81 2.35 2.23 1.86Q1.64 1.37 1.21 1.11L1.21 1.11Q3.02-1.01 3.89-3.52Q4.76-6.03 4.99-8.66Q5.23-11.29 5.23-13.61L5.23-13.61L5.23-25.67Z" transform="translate(268.08 132.53) " fill="rgb(8, 12, 36)" stroke="rgb(8, 12, 36)" stroke-width="0.056" data-glyph-w="33.51" data-glyph-h="33.51" data-glyph-ascender="29.488799999999998" data-glyph-descender="-4.021199999999999"></path><path d="M9.25-23.16L9.25-23.16L7.17-23.16Q5.63-20.71 3.85-19.00L3.85-19.00Q3.49-19.34 2.88-19.74Q2.28-20.14 1.78-20.37L1.78-20.37Q5.29-23.42 7.00-28.11L7.00-28.11L9.38-27.55Q8.95-26.37 8.38-25.27L8.38-25.27L16.42-25.27L16.42-23.16L11.76-23.16Q12.73-21.48 13.20-20.14L13.20-20.14L11.02-19.30Q10.79-20.07 10.30-21.13Q9.82-22.18 9.25-23.16ZM6.10 2.55L3.69 2.55L3.69-15.15L6.10-15.15L6.10 2.55ZM5.43-18.60L5.43-18.60L7.31-19.80Q8.31-18.83 9.27-17.69Q10.22-16.55 10.76-15.65L10.76-15.65L8.78-14.38Q8.31-15.28 7.37-16.44Q6.43-17.59 5.43-18.60ZM20.88-8.75L20.88-11.49L12.67-11.49L12.67-8.75L20.88-8.75ZM12.67-6.90L12.67-3.95L20.88-3.95L20.88-6.90L12.67-6.90ZM23.26-13.44L23.26-1.98L12.67-1.98L12.67-0.30L10.35-0.30L10.35-13.44L23.26-13.44ZM11.76-18.83L29.86-18.83L29.86-0.44Q29.86 0.67 29.51 1.24Q29.15 1.81 28.32 2.11L28.32 2.11Q26.84 2.55 22.92 2.45L22.92 2.45Q22.59 2.45 22.22 2.45L22.22 2.45Q22.12 1.94 21.88 1.36Q21.65 0.77 21.38 0.27L21.38 0.27Q23.22 0.30 24.61 0.30Q26.00 0.30 26.57 0.27L26.57 0.27Q27.08 0.27 27.24 0.12Q27.41-0.03 27.41-0.44L27.41-0.44L27.41-16.59L11.76-16.59L11.76-18.83ZM21.45-25.27L21.45-25.27L31.03-25.27L31.03-23.16L25.64-23.16Q26.74-21.55 27.28-20.27L27.28-20.27L25.10-19.30Q24.80-20.07 24.21-21.13Q23.62-22.18 22.92-23.16L22.92-23.16L20.37-23.16Q19.17-21.04 17.73-19.60L17.73-19.60Q17.36-19.90 16.77-20.31Q16.19-20.71 15.72-20.98L15.72-20.98Q18.60-23.79 19.94-28.08L19.94-28.08L22.28-27.55Q21.98-26.37 21.45-25.27Z" transform="translate(301.59 132.53) " fill="rgb(8, 12, 36)" stroke="rgb(8, 12, 36)" stroke-width="0.056" data-glyph-w="33.51" data-glyph-h="33.51" data-glyph-ascender="29.488799999999998" data-glyph-descender="-4.021199999999999"></path><path d="M7.51-14.61L7.51-11.02L15.41-11.02L15.41-14.61L7.51-14.61ZM15.41-20.14L7.51-20.14L7.51-16.62L15.41-16.62L15.41-20.14ZM17.93-16.62L26.24-16.62L26.24-20.14L17.93-20.14L17.93-16.62ZM17.93-11.02L26.24-11.02L26.24-14.61L17.93-14.61L17.93-11.02ZM17.93-5.73L31.63-5.73L31.63-3.42L17.93-3.42L17.93 2.55L15.41 2.55L15.41-3.42L1.91-3.42L1.91-5.73L15.41-5.73L15.41-8.91L5.06-8.91L5.06-22.25L11.23-22.25Q10.66-23.29 9.78-24.55Q8.91-25.80 7.98-26.88L7.98-26.88L10.05-27.88Q11.13-26.71 12.13-25.37Q13.14-24.03 13.67-22.95L13.67-22.95L12.30-22.25L20.37-22.25Q21.28-23.49 22.18-25.03Q23.09-26.57 23.73-27.88L23.73-27.88L26.37-26.98Q24.83-24.50 23.16-22.25L23.16-22.25L28.75-22.25L28.75-8.91L17.93-8.91L17.93-5.73Z" transform="translate(335.09999999999997 132.53) " fill="rgb(8, 12, 36)" stroke="rgb(8, 12, 36)" stroke-width="0.056" data-glyph-w="33.51" data-glyph-h="33.51" data-glyph-ascender="29.488799999999998" data-glyph-descender="-4.021199999999999"></path><path d="M8.01-9.58L25.40-9.58L25.40-15.55L8.01-15.55L8.01-9.58ZM17.73-17.89L27.91-17.89L27.91-7.24L5.63-7.24L5.63-17.89L15.25-17.89L15.25-28.05L17.73-28.05L17.73-24.46L30.39-24.46L30.39-22.12L17.73-22.12L17.73-17.89ZM3.79 2.55L3.79 2.55L1.51 1.44Q4.32-1.17 6.07-5.23L6.07-5.23L8.41-4.62Q6.63-0.40 3.79 2.55ZM11.43-4.32L11.43-4.32L13.81-4.52Q14.14-2.88 14.38-1.11Q14.61 0.67 14.64 1.94L14.64 1.94L12.16 2.28Q12.16 1.01 11.96-0.82Q11.76-2.65 11.43-4.32ZM18.30-4.29L18.30-4.29L20.54-4.79Q21.35-3.22 22.03-1.46Q22.72 0.30 23.05 1.61L23.05 1.61L20.64 2.18Q20.37 0.87 19.72-0.92Q19.07-2.71 18.30-4.29ZM25.10-4.59L25.10-4.59L27.28-5.43Q28.58-3.79 29.82-1.94Q31.06-0.10 31.73 1.34L31.73 1.34L29.39 2.28Q28.79 0.84 27.60-1.04Q26.41-2.92 25.10-4.59Z" transform="translate(368.60999999999996 132.53) " fill="rgb(8, 12, 36)" stroke="rgb(8, 12, 36)" stroke-width="0.056" data-glyph-w="33.51" data-glyph-h="33.51" data-glyph-ascender="29.488799999999998" data-glyph-descender="-4.021199999999999"></path><path d="M5.29-13.44L12.33-13.44L12.33-20.44L5.29-20.44L5.29-13.44ZM5.29-11.23L5.29-3.18L12.33-3.18L12.33-11.23L5.29-11.23ZM8.11-28.11L8.11-28.11L10.79-27.61Q10.59-26.98 10.35-26.34L10.35-26.34Q9.68-24.36 9.05-22.69L9.05-22.69L14.61-22.69L14.61-0.94L5.29-0.94L5.29 1.71L3.02 1.71L3.02-22.69L6.77-22.69Q7.17-23.93 7.54-25.42Q7.91-26.91 8.11-28.11ZM20.98-22.79L31.00-22.79L31.00-21.51Q30.63-10.25 30.14-5.36Q29.66-0.47 28.68 0.57L28.68 0.57Q27.68 1.88 26.04 1.91L26.04 1.91Q24.09 2.08 21.08 1.88L21.08 1.88Q21.01 1.31 20.81 0.64Q20.61-0.03 20.24-0.57L20.24-0.57Q21.92-0.44 23.27-0.40Q24.63-0.37 25.20-0.37L25.20-0.37Q25.70-0.37 26.02-0.47Q26.34-0.57 26.57-0.87L26.57-0.87Q27.38-1.61 27.85-6.12Q28.32-10.62 28.62-20.47L28.62-20.47L20.11-20.47Q18.70-17.06 16.96-14.61L16.96-14.61Q16.59-14.95 15.97-15.35Q15.35-15.75 14.91-16.02L14.91-16.02Q18.36-20.88 20.04-28.18L20.04-28.18L22.42-27.61Q21.82-25.17 20.98-22.79L20.98-22.79ZM25.70-7.71L25.70-7.71L23.59-6.40Q22.79-7.98 21.36-10.12Q19.94-12.26 18.50-14.14L18.50-14.14L20.44-15.28Q21.92-13.44 23.37-11.34Q24.83-9.25 25.70-7.71Z" transform="translate(402.11999999999995 132.53) " fill="rgb(8, 12, 36)" stroke="rgb(8, 12, 36)" stroke-width="0.056" data-glyph-w="33.51" data-glyph-h="33.51" data-glyph-ascender="29.488799999999998" data-glyph-descender="-4.021199999999999"></path><path d="M31.23-22.25L31.23-19.80L14.21-19.80Q14.07-17.19 13.74-14.51L13.74-14.51L27.98-14.51Q27.98-14.51 27.98-14.38Q27.98-14.24 27.96-14.04Q27.95-13.84 27.93-13.64Q27.91-13.44 27.88-13.30L27.88-13.30Q27.41-6.37 26.82-3.10Q26.24 0.17 25.27 1.04L25.27 1.04Q24.70 1.64 24.03 1.89Q23.36 2.14 22.38 2.21L22.38 2.21Q20.41 2.31 16.79 2.08L16.79 2.08Q16.72 1.51 16.50 0.85Q16.29 0.20 15.92-0.34L15.92-0.34Q17.76-0.20 19.32-0.15Q20.88-0.10 21.51-0.10L21.51-0.10Q22.69-0.10 23.09-0.47L23.09-0.47Q24.53-1.27 25.30-12.10L25.30-12.10L13.37-12.10Q12.63-7.61 10.39-3.75Q8.14 0.10 3.49 2.68L3.49 2.68Q3.18 2.14 2.68 1.59Q2.18 1.04 1.68 0.67L1.68 0.67Q5.90-1.51 7.94-4.83Q9.99-8.14 10.66-12.05Q11.33-15.95 11.46-19.80L11.46-19.80L2.41-19.80L2.41-22.25L17.06-22.25Q16.72-23.29 16.08-24.68Q15.45-26.07 14.78-27.28L14.78-27.28L17.16-28.22Q17.86-27.01 18.53-25.67Q19.20-24.33 19.57-23.26L19.57-23.26L17.26-22.25L31.23-22.25Z" transform="translate(435.62999999999994 132.53) " fill="rgb(8, 12, 36)" stroke="rgb(8, 12, 36)" stroke-width="0.056" data-glyph-w="33.51" data-glyph-h="33.51" data-glyph-ascender="29.488799999999998" data-glyph-descender="-4.021199999999999"></path><path d="M30.23-23.79L30.23-23.79L28.48-22.22Q27.71-23.12 26.39-24.29Q25.07-25.47 23.73-26.41L23.73-26.41L25.40-27.78Q26.74-26.88 28.08-25.79Q29.42-24.70 30.23-23.79ZM17.83-12.00L11.56-12.00L11.56-2.81Q13.00-3.12 14.51-3.42L14.51-3.42Q16.62-3.85 18.73-4.32L18.73-4.32L18.93-2.11Q9.85 0.03 2.88 1.57L2.88 1.57L2.11-0.87Q3.75-1.21 5.86-1.61L5.86-1.61Q7.41-1.94 9.11-2.28L9.11-2.28L9.11-12.00L3.15-12.00L3.15-14.41L17.83-14.41L17.83-12.00ZM31.60-21.82L31.60-19.37L21.82-19.37Q22.25-13.71 23.21-9.35Q24.16-4.99 25.55-2.48Q26.94 0.03 28.58 0.03L28.58 0.03Q29.96 0.03 30.09-6.27L30.09-6.27Q30.53-5.83 31.15-5.46Q31.77-5.09 32.30-4.89L32.30-4.89Q32.00-0.60 31.15 1.01Q30.29 2.61 28.38 2.61L28.38 2.61Q25.67 2.61 23.81-0.30Q21.95-3.22 20.83-8.18Q19.70-13.14 19.27-19.37L19.27-19.37L1.98-19.37L1.98-21.82L19.10-21.82Q18.97-24.80 18.93-27.88L18.93-27.88L21.55-27.88Q21.55-24.76 21.68-21.82L21.68-21.82L31.60-21.82Z" transform="translate(469.13999999999993 132.53) " fill="rgb(8, 12, 36)" stroke="rgb(8, 12, 36)" stroke-width="0.056" data-glyph-w="33.51" data-glyph-h="33.51" data-glyph-ascender="29.488799999999998" data-glyph-descender="-4.021199999999999"></path><path d="M18.10-9.42L18.10-0.90L31.67-0.90L31.67 1.51L1.98 1.51L1.98-0.90L15.55-0.90L15.55-9.42L5.60-9.42L5.60-11.83L15.55-11.83L15.55-19.13L7.67-19.13Q6.07-15.95 4.16-13.67L4.16-13.67Q3.79-14.01 3.12-14.44Q2.45-14.88 1.91-15.15L1.91-15.15Q6.10-19.97 8.11-27.48L8.11-27.48L10.62-26.94Q9.85-24.16 8.75-21.58L8.75-21.58L15.55-21.58L15.55-28.01L18.10-28.01L18.10-21.58L30.09-21.58L30.09-19.13L18.10-19.13L18.10-11.83L28.85-11.83L28.85-9.42L18.10-9.42Z" transform="translate(502.6499999999999 132.53) " fill="rgb(8, 12, 36)" stroke="rgb(8, 12, 36)" stroke-width="0.056" data-glyph-w="33.51" data-glyph-h="33.51" data-glyph-ascender="29.488799999999998" data-glyph-descender="-4.021199999999999"></path><path d="M22.45-26.37L22.45-26.37L23.93-27.88Q25.53-27.08 27.21-26.02Q28.89-24.96 29.92-24.06L29.92-24.06L28.38-22.35Q27.38-23.26 25.74-24.36Q24.09-25.47 22.45-26.37ZM27.21-17.32L27.21-17.32L29.72-16.69Q27.55-10.19 23.83-5.36L23.83-5.36Q25.77-0.17 28.32-0.17L28.32-0.17Q29.02-0.17 29.37-1.61Q29.72-3.05 29.89-6.37L29.89-6.37Q30.33-5.93 30.91-5.56Q31.50-5.19 32.04-5.03L32.04-5.03Q31.73-0.84 30.88 0.74Q30.02 2.31 28.11 2.31L28.11 2.31Q26.17 2.31 24.65 0.87Q23.12-0.57 21.98-3.18L21.98-3.18Q18.97 0.10 15.08 2.38L15.08 2.38Q14.78 1.98 14.26 1.37Q13.74 0.77 13.27 0.40L13.27 0.40Q17.76-2.01 20.98-5.80L20.98-5.80Q19.17-11.66 18.53-19.90L18.53-19.90L6.97-19.90L6.97-15.55L15.52-15.55L15.52-14.48Q15.41-8.95 15.18-6.40Q14.95-3.85 14.44-3.28L14.44-3.28Q13.77-2.41 12.43-2.31L12.43-2.31Q11.06-2.21 8.44-2.31L8.44-2.31Q8.38-3.59 7.74-4.66L7.74-4.66Q8.91-4.56 9.89-4.52Q10.86-4.49 11.29-4.49L11.29-4.49Q12.00-4.49 12.30-4.86L12.30-4.86Q12.63-5.16 12.80-7.07Q12.97-8.98 13.07-13.24L13.07-13.24L6.97-13.24L6.97-12.97Q6.97-10.62 6.72-7.77Q6.47-4.93 5.70-2.16Q4.93 0.60 3.45 2.81L3.45 2.81Q3.08 2.41 2.46 1.91Q1.84 1.41 1.37 1.14L1.37 1.14Q2.71-0.94 3.38-3.38Q4.05-5.83 4.24-8.34Q4.42-10.86 4.42-13.00L4.42-13.00L4.42-22.35L18.40-22.35Q18.23-25.13 18.20-27.98L18.20-27.98L20.78-27.98Q20.78-25.07 20.91-22.35L20.91-22.35L31.73-22.35L31.73-19.90L21.08-19.90Q21.58-13.14 22.92-8.28L22.92-8.28Q25.64-12.26 27.21-17.32Z" transform="translate(536.16 132.53) " fill="rgb(8, 12, 36)" stroke="rgb(8, 12, 36)" stroke-width="0.056" data-glyph-w="33.51" data-glyph-h="33.51" data-glyph-ascender="29.488799999999998" data-glyph-descender="-4.021199999999999"></path><path d="M15.58-9.45L15.58-9.45L15.58-15.45L18.10-15.45L18.10-9.42Q18.10-7.71 17.59-6.02Q17.09-4.32 15.57-2.76Q14.04-1.21 11.09 0.17Q8.14 1.54 3.32 2.61L3.32 2.61Q3.08 2.14 2.66 1.56Q2.25 0.97 1.81 0.54L1.81 0.54Q6.40-0.40 9.18-1.57Q11.96-2.75 13.34-4.05Q14.71-5.36 15.15-6.74Q15.58-8.11 15.58-9.45ZM18.26-3.72L18.26-3.72L19.67-5.43Q22.65-4.12 25.87-2.43Q29.09-0.74 31.10 0.70L31.10 0.70L29.56 2.68Q27.61 1.21 24.45-0.57Q21.28-2.35 18.26-3.72ZM2.58-23.86L2.58-26.20L31.20-26.20L31.20-23.86L17.89-23.86Q16.99-21.71 16.05-19.87L16.05-19.87L28.01-19.87L28.01-4.39L25.40-4.39L25.40-17.56L8.34-17.56L8.34-4.32L5.86-4.32L5.86-19.87L13.54-19.87Q14.41-21.78 15.08-23.86L15.08-23.86L2.58-23.86Z" transform="translate(569.67 132.53) " fill="rgb(8, 12, 36)" stroke="rgb(8, 12, 36)" stroke-width="0.056" data-glyph-w="33.51" data-glyph-h="33.51" data-glyph-ascender="29.488799999999998" data-glyph-descender="-4.021199999999999"></path><path d="M22.38-1.51L27.41-1.51L27.41-16.92L22.38-16.92L22.38-1.51ZM10.76-16.92L6.00-16.92L6.00-1.51L10.76-1.51L10.76-16.92ZM13.04-13.24L20.11-13.24L20.11-16.92L13.04-16.92L13.04-13.24ZM20.11-5.40L13.04-5.40L13.04-1.51L20.11-1.51L20.11-5.40ZM13.04-7.44L20.11-7.44L20.11-11.19L13.04-11.19L13.04-7.44ZM31.53-25.80L31.53-23.42L17.79-23.42Q17.16-21.25 16.49-19.23L16.49-19.23L29.92-19.23L29.92 2.58L27.41 2.58L27.41 0.80L6.00 0.80L6.00 2.58L3.59 2.58L3.59-19.23L13.94-19.23Q14.51-21.25 14.91-23.42L14.91-23.42L2.08-23.42L2.08-25.80L31.53-25.80Z" transform="translate(603.18 132.53) " fill="rgb(8, 12, 36)" stroke="rgb(8, 12, 36)" stroke-width="0.056" data-glyph-w="33.51" data-glyph-h="33.51" data-glyph-ascender="29.488799999999998" data-glyph-descender="-4.021199999999999"></path></g></svg></g>
        </g>
  </svg>