<svg width="800.23366" height="163.67524" xmlns="http://www.w3.org/2000/svg" style="background: #ffffff;" version="1.1" preserveAspectRatio="none" ref="svg_canvas">

 <g>
  <title>background</title>
  <rect fill="none" id="canvas_background" height="165.67524" width="802.23366" y="-1" x="-1"/>
 </g>
 <g>
  <title>Layer 1</title>
  <g display="inline" style="cursor:move;display:inline;opacity:1;" transform="translate(299.28192138671875,234.71578979492188) scale(1) " key="shape_dTulsl9mQK" ref="shape_dTulsl9mQK" id="shape_dTulsl9mQK">
   <g id="svg_18" display="inline" style="display:inline">
    <rect id="svg_19" y="-10" x="-10" height="37.38116" width="37.38116" fill="rgba(0,0,0,0)"/>
    <svg data-parent="shape_dTulsl9mQK" class="style-removed" preserveAspectRatio="none" shapetype="ellipse" xml:space="preserve" enable-background="new 0 0 100 100" viewBox="0 0 100 100" height="17.38116" width="17.38116" y="0px" x="0px" id="svg_6" version="1.1" xmlns:xlink="http://www.w3.org/1999/xlink" xmlns="http://www.w3.org/2000/svg">
     <clipPath id="svg_7">
      <ellipse id="svg_20" ry="50" rx="50" cy="50" cx="50" stroke-miterlimit="10" stroke="#dddddd" fill="none"/>
     </clipPath>
     <ellipse id="svg_21" ry="49" rx="49" cy="50" cx="50" fill="#FFFFFF"/>
     <ellipse id="svg_22" clip-path="url(#svg_7)" ry="50" rx="50" cy="50" cx="50" stroke-miterlimit="10" stroke-width="0" stroke="#dddddd" fill="none"/>
    </svg>
   </g>
  </g>
  <g id="svg_39">
   <g display="inline" transform="translate(195,215) scale(1) " key="shape_tDKxdcduu2" ref="shape_tDKxdcduu2" id="shape_tDKxdcduu2">
    <g id="svg_13" display="inline">
     <rect id="svg_14" y="-214" x="-193" height="162.706582" width="162.706582" fill="rgba(0,0,0,0)"/>
     <svg data-parent="shape_tDKxdcduu2" class="style-removed" preserveAspectRatio="none" shapetype="ellipse" xml:space="preserve" enable-background="new 0 0 100 100" viewBox="0 0 100 100" height="142.706582" width="142.706582" y="-204" x="-183" id="svg_1" version="1.1" xmlns:xlink="http://www.w3.org/1999/xlink" xmlns="http://www.w3.org/2000/svg">
      <clipPath id="svg_2">
       <ellipse id="svg_15" ry="50" rx="50" cy="50" cx="50" stroke-miterlimit="10" stroke="#2890ff" fill="none"/>
      </clipPath>
      <ellipse id="svg_16" ry="49" rx="49" cy="50" cx="50" fill="#2890ff"/>
      <ellipse id="svg_17" clip-path="url(#svg_2)" ry="50" rx="50" cy="50" cx="50" stroke-miterlimit="10" stroke-width="0" stroke="#2890ff" fill="none"/>
     </svg>
    </g>
   </g>
   <g display="inline" transform="translate(80.29999542236328,-223.09494018554688) scale(1) " key="shape_QVcmHQPsq7" ref="shape_QVcmHQPsq7" id="shape_QVcmHQPsq7">
    <g id="svg_11" display="inline">
     <svg y="-204" x="-183" id="svg_23" data-parent="shape_QVcmHQPsq7" preserveAspectRatio="none" viewBox="0 0 640.08 1068.4699" height="1068.4699" width="640.08" version="1.1" xmlns:xlink="http://www.w3.org/1999/xlink" xmlns="http://www.w3.org/2000/svg">
      <rect id="svg_24" y="454.73495" x="133.27" height="159" width="107" fill="rgba(0,0,0,0)"/>
      <g id="svg_25" data-width="106.21619">
       <path id="svg_26" data-glyph-descender="-110.21429" data-glyph-ascender="157.92495" data-glyph-h="268.13924" data-glyph-w="106.21619" stroke-width="0.222" stroke="rgb(255, 255, 255)" fill="rgb(255, 255, 255)" d="m198.161911,537.874924l0,0q-1.73,1.47 -4.46,2.33q-2.73,0.87 -6.33,0.87l0,0q-4.8,0 -7.93,-1.2q-3.13,-1.2 -4.07,-4.13l0,0q-3.73,-11.73 -6.13,-18.99q-2.4,-7.26 -3.73,-12.73l0,0l-0.66,0q-0.4,7.87 -0.6,14.33q-0.2,6.46 -0.27,12.59q-0.07,6.13 -0.27,12.4q-0.2,6.26 -0.6,13.86l0,0q-1.73,0.66 -4.53,1.13q-2.8,0.47 -5.6,0.47l0,0q-5.86,0 -9.12,-1.87q-3.27,-1.87 -3.27,-6.8l0,0l3.86,-67.96q1.07,-1.74 4.67,-3.74q3.6,-1.99 10.13,-1.99l0,0q7.06,0 11.06,2.19q4,2.2 5.86,7.13l0,0q1.2,3.2 2.6,7.33q1.4,4.14 2.8,8.53q1.4,4.4 2.73,8.73q1.34,4.33 2.4,7.8l0,0l0.67,0q3.2,-11.2 6.39,-21.66q3.2,-10.46 5.87,-17.52l0,0q2,-1.07 5.13,-1.8q3.13,-0.73 7,-0.73l0,0q6.53,0 10.66,1.93q4.13,1.93 4.8,5.53l0,0q0.53,2.66 1.13,8.19q0.6,5.54 1.26,12.47q0.67,6.93 1.34,14.65q0.66,7.73 1.26,14.86q0.6,7.13 1,13.07q0.4,5.93 0.54,9.12l0,0q-2.27,1.34 -4.74,1.94q-2.46,0.6 -6.33,0.6l0,0q-5.06,0 -8.52,-1.74q-3.47,-1.73 -3.74,-6.79l0,0q-0.8,-14.53 -1,-26.12q-0.2,-11.6 -0.6,-19.46l0,0l-0.66,0q-1.33,5.2 -3.87,13.06q-2.53,7.86 -6.13,20.12z"/>
      </g>
     </svg>
    </g>
   </g>
   <g display="inline" transform="translate(236.1736602783203,-163.6252899169922) scale(1) " key="shape_wifAVftsRN" ref="shape_wifAVftsRN" id="shape_wifAVftsRN">
    <g id="svg_12" display="inline">
     <svg y="-204" x="-183" id="svg_27" data-parent="shape_wifAVftsRN" preserveAspectRatio="none" viewBox="0 0 1079.24 914.6822" height="914.6822" width="1079.24" version="1.1" xmlns:xlink="http://www.w3.org/1999/xlink" xmlns="http://www.w3.org/2000/svg">
      <rect id="svg_28" y="389.3411" x="114.06" height="136" width="623" fill="rgba(0,0,0,0)"/>
      <g id="svg_29" data-width="622.1973">
       <path id="svg_30" data-glyph-descender="-94.32762" data-glyph-ascender="135.1611" data-glyph-h="229.48872" data-glyph-w="96.49476" stroke-width="0.19" stroke="rgb(40, 144, 255)" fill="rgb(40, 144, 255)" d="m146.569998,420.201095l0,0q4.67,0 9.18,1.31q4.5,1.31 7.81,3.93l0,0q3.42,-2.28 7.7,-3.76q4.28,-1.48 10.32,-1.48l0,0q4.34,0 8.5,1.14q4.16,1.14 7.41,3.59q3.26,2.45 5.19,6.5q1.94,4.05 1.94,9.87l0,0l0,35.93q-1.14,0.34 -3.59,0.68q-2.45,0.34 -5.07,0.34l0,0q-2.51,0 -4.51,-0.34q-2,-0.34 -3.37,-1.37q-1.36,-1.02 -2.11,-2.79q-0.74,-1.77 -0.74,-4.62l0,0l0,-27.26q0,-3.42 -1.94,-4.96q-1.93,-1.54 -5.24,-1.54l0,0q-1.6,0 -3.42,0.74q-1.83,0.74 -2.74,1.54l0,0q0.11,0.45 0.11,0.85q0,0.4 0,0.74l0,0l0,37.99q-1.25,0.34 -3.7,0.68q-2.46,0.34 -4.97,0.34l0,0q-2.51,0 -4.5,-0.34q-2,-0.34 -3.37,-1.37q-1.36,-1.02 -2.11,-2.79q-0.74,-1.77 -0.74,-4.62l0,0l0,-27.26q0,-3.42 -2.11,-4.96q-2.11,-1.54 -5.07,-1.54l0,0q-2.06,0 -3.54,0.62q-1.48,0.63 -2.51,1.2l0,0l0,40.04q-1.14,0.34 -3.59,0.68q-2.45,0.34 -5.08,0.34l0,0q-2.51,0 -4.5,-0.34q-2,-0.34 -3.37,-1.37q-1.37,-1.02 -2.11,-2.79q-0.74,-1.77 -0.74,-4.62l0,0l0,-34.45q0,-3.08 1.31,-4.9q1.31,-1.83 3.6,-3.42l0,0q3.87,-2.74 9.63,-4.45q5.76,-1.71 12.04,-1.71z"/>
       <path id="svg_31" data-glyph-descender="-94.32762" data-glyph-ascender="135.1611" data-glyph-h="229.48872" data-glyph-w="66.38292" stroke-width="0.19" stroke="rgb(40, 144, 255)" fill="rgb(40, 144, 255)" d="m216.484756,455.331095l0,-32.62q1.14,-0.35 3.59,-0.69q2.46,-0.34 5.08,-0.34l0,0q2.51,0 4.51,0.34q1.99,0.34 3.36,1.37q1.37,1.03 2.11,2.79q0.74,1.77 0.74,4.62l0,0l0,24.53q0,4.67 2.28,6.67q2.28,1.99 6.62,1.99l0,0q2.62,0 4.28,-0.45q1.65,-0.46 2.56,-0.91l0,0l0,-39.92q1.14,-0.35 3.59,-0.69q2.46,-0.34 5.08,-0.34l0,0q2.51,0 4.51,0.34q1.99,0.34 3.36,1.37q1.37,1.03 2.11,2.79q0.74,1.77 0.74,4.62l0,0l0,34.68q0,5.7 -4.79,8.55l0,0q-3.99,2.51 -9.52,3.82q-5.53,1.31 -12.04,1.31l0,0q-6.16,0 -11.35,-1.36q-5.18,-1.37 -8.95,-4.22q-3.76,-2.86 -5.82,-7.36q-2.05,-4.51 -2.05,-10.89l0,0z"/>
       <path id="svg_32" data-glyph-descender="-94.32762" data-glyph-ascender="135.1611" data-glyph-h="229.48872" data-glyph-w="96.49476" stroke-width="0.19" stroke="rgb(40, 144, 255)" fill="rgb(40, 144, 255)" d="m309.447683,420.201095l0,0q4.67,0 9.18,1.31q4.5,1.31 7.81,3.93l0,0q3.42,-2.28 7.7,-3.76q4.28,-1.48 10.32,-1.48l0,0q4.34,0 8.5,1.14q4.16,1.14 7.41,3.59q3.26,2.45 5.19,6.5q1.94,4.05 1.94,9.87l0,0l0,35.93q-1.14,0.34 -3.59,0.68q-2.45,0.34 -5.07,0.34l0,0q-2.51,0 -4.51,-0.34q-2,-0.34 -3.37,-1.37q-1.36,-1.02 -2.11,-2.79q-0.74,-1.77 -0.74,-4.62l0,0l0,-27.26q0,-3.42 -1.94,-4.96q-1.93,-1.54 -5.24,-1.54l0,0q-1.6,0 -3.42,0.74q-1.83,0.74 -2.74,1.54l0,0q0.11,0.45 0.11,0.85q0,0.4 0,0.74l0,0l0,37.99q-1.25,0.34 -3.7,0.68q-2.46,0.34 -4.97,0.34l0,0q-2.51,0 -4.5,-0.34q-2,-0.34 -3.37,-1.37q-1.36,-1.02 -2.11,-2.79q-0.74,-1.77 -0.74,-4.62l0,0l0,-27.26q0,-3.42 -2.11,-4.96q-2.11,-1.54 -5.07,-1.54l0,0q-2.06,0 -3.54,0.62q-1.48,0.63 -2.51,1.2l0,0l0,40.04q-1.14,0.34 -3.59,0.68q-2.45,0.34 -5.08,0.34l0,0q-2.51,0 -4.5,-0.34q-2,-0.34 -3.37,-1.37q-1.37,-1.02 -2.11,-2.79q-0.74,-1.77 -0.74,-4.62l0,0l0,-34.45q0,-3.08 1.31,-4.9q1.31,-1.83 3.6,-3.42l0,0q3.87,-2.74 9.63,-4.45q5.76,-1.71 12.04,-1.71z"/>
       <path id="svg_33" data-glyph-descender="-94.32762" data-glyph-ascender="135.1611" data-glyph-h="229.48872" data-glyph-w="66.38292" stroke-width="0.19" stroke="rgb(40, 144, 255)" fill="rgb(40, 144, 255)" d="m379.362434,455.331095l0,-32.62q1.14,-0.35 3.59,-0.69q2.46,-0.34 5.08,-0.34l0,0q2.51,0 4.51,0.34q1.99,0.34 3.36,1.37q1.37,1.03 2.11,2.79q0.74,1.77 0.74,4.62l0,0l0,24.53q0,4.67 2.28,6.67q2.28,1.99 6.62,1.99l0,0q2.62,0 4.28,-0.45q1.65,-0.46 2.56,-0.91l0,0l0,-39.92q1.14,-0.35 3.59,-0.69q2.46,-0.34 5.08,-0.34l0,0q2.51,0 4.51,0.34q1.99,0.34 3.36,1.37q1.37,1.03 2.11,2.79q0.74,1.77 0.74,4.62l0,0l0,34.68q0,5.7 -4.79,8.55l0,0q-3.99,2.51 -9.52,3.82q-5.53,1.31 -12.04,1.31l0,0q-6.16,0 -11.35,-1.36q-5.18,-1.37 -8.95,-4.22q-3.76,-2.86 -5.82,-7.36q-2.05,-4.51 -2.05,-10.89l0,0z"/>
       <path id="svg_34" data-glyph-descender="-94.32762" data-glyph-ascender="135.1611" data-glyph-h="229.48872" data-glyph-w="40.37724" stroke-width="0.19" stroke="rgb(40, 144, 255)" fill="rgb(40, 144, 255)" d="m469.815369,456.121095l-24.41,0q-0.8,-1.25 -1.48,-3.3q-0.69,-2.06 -0.69,-4.34l0,0q0,-4.22 1.94,-6.1q1.94,-1.88 5.02,-1.88l0,0l24.41,0q0.68,1.25 1.42,3.31q0.75,2.05 0.75,4.33l0,0q0,4.22 -1.94,6.1q-1.94,1.88 -5.02,1.88l0,0z"/>
       <path id="svg_35" data-glyph-descender="-94.32762" data-glyph-ascender="135.1611" data-glyph-h="229.48872" data-glyph-w="66.7251" stroke-width="0.19" stroke="rgb(40, 144, 255)" fill="rgb(40, 144, 255)" d="m511.562596,420.201095l0,0q6.84,0 12.71,1.76q5.88,1.77 10.1,5.42q4.22,3.65 6.61,9.18q2.4,5.54 2.4,13.18l0,0q0,7.3 -2.05,12.77q-2.06,5.48 -5.82,9.18q-3.76,3.71 -9.07,5.54q-5.3,1.82 -11.8,1.82l0,0q-4.91,0 -9.13,-1.48l0,0l0,18.93q-1.14,0.34 -3.65,0.74q-2.51,0.4 -5.13,0.4l0,0q-2.51,0 -4.51,-0.34q-1.99,-0.34 -3.36,-1.37q-1.37,-1.02 -2.05,-2.79q-0.69,-1.77 -0.69,-4.62l0,0l0,-54.75q0,-3.08 1.31,-5.02q1.31,-1.94 3.6,-3.54l0,0q3.53,-2.28 8.78,-3.65q5.25,-1.36 11.75,-1.36zm0.22,43.57l0,0q11.75,0 11.75,-14.03l0,0q0,-7.3 -2.91,-10.84q-2.9,-3.53 -8.38,-3.53l0,0q-2.17,0 -3.88,0.51q-1.71,0.51 -2.96,1.2l0,0l0,25.09q1.37,0.68 2.96,1.14q1.6,0.46 3.42,0.46z"/>
       <path id="svg_36" data-glyph-descender="-94.32762" data-glyph-ascender="135.1611" data-glyph-h="229.48872" data-glyph-w="62.04864" stroke-width="0.19" stroke="rgb(40, 144, 255)" fill="rgb(40, 144, 255)" d="m576.577694,465.021095l0,0q1.93,0 4.27,-0.4q2.34,-0.4 3.48,-1.08l0,0l0,-9.13l-8.21,0.69q-3.19,0.23 -5.25,1.37q-2.05,1.14 -2.05,3.42l0,0q0,2.28 1.77,3.71q1.77,1.42 5.99,1.42zm-0.92,-44.82l0,0q6.16,0 11.24,1.25q5.07,1.26 8.67,3.82q3.59,2.57 5.53,6.5q1.94,3.94 1.94,9.3l0,0l0,25.55q0,2.96 -1.66,4.85q-1.65,1.88 -3.93,3.25l0,0q-7.42,4.44 -20.87,4.44l0,0q-6.05,0 -10.9,-1.14q-4.84,-1.14 -8.32,-3.42q-3.48,-2.28 -5.36,-5.81q-1.89,-3.54 -1.89,-8.22l0,0q0,-7.87 4.68,-12.09q4.68,-4.22 14.49,-5.24l0,0l14.94,-1.6l0,-0.8q0,-3.31 -2.91,-4.73q-2.91,-1.43 -8.38,-1.43l0,0q-4.34,0 -8.44,0.91q-4.11,0.92 -7.42,2.29l0,0q-1.48,-1.03 -2.51,-3.14q-1.02,-2.11 -1.02,-4.39l0,0q0,-2.97 1.42,-4.74q1.43,-1.76 4.39,-3.02l0,0q3.31,-1.25 7.82,-1.82q4.5,-0.57 8.49,-0.57z"/>
       <path id="svg_37" data-glyph-descender="-94.32762" data-glyph-ascender="135.1611" data-glyph-h="229.48872" data-glyph-w="64.67202" stroke-width="0.19" stroke="rgb(40, 144, 255)" fill="rgb(40, 144, 255)" d="m641.926339,420.201095l0,0q6.5,0 11.81,1.65q5.3,1.65 8.95,4.28l0,0q2.28,1.59 3.6,3.53q1.31,1.94 1.31,5.02l0,0l0,39.92q0,6.05 -2.28,10.44q-2.29,4.39 -6.22,7.3q-3.94,2.91 -9.24,4.28q-5.3,1.36 -11.35,1.36l0,0q-10.38,0 -16.31,-2.79q-5.93,-2.79 -5.93,-9.07l0,0q0,-2.62 1.08,-4.62q1.09,-1.99 2.46,-3.02l0,0q3.3,1.83 7.47,3.08q4.16,1.25 8.61,1.25l0,0q6.16,0 9.81,-2.05q3.65,-2.05 3.65,-6.61l0,0l0,-1.83q-4.68,2.05 -11.41,2.05l0,0q-5.13,0 -9.75,-1.54q-4.62,-1.54 -8.1,-4.79q-3.48,-3.25 -5.59,-8.38q-2.11,-5.13 -2.11,-12.2l0,0q0,-6.96 2.23,-12.09q2.22,-5.14 6.16,-8.5q3.93,-3.37 9.35,-5.02q5.42,-1.65 11.8,-1.65zm7.08,37.52l0,-20.99q-0.8,-0.45 -2.34,-0.91q-1.54,-0.45 -3.82,-0.45l0,0q-5.59,0 -8.39,3.13q-2.79,3.14 -2.79,8.96l0,0q0,6.61 2.79,9.52q2.8,2.91 7.13,2.91l0,0q4.68,0 7.42,-2.17l0,0z"/>
       <path id="svg_38" data-glyph-descender="-94.32762" data-glyph-ascender="135.1611" data-glyph-h="229.48872" data-glyph-w="62.61894" stroke-width="0.19" stroke="rgb(40, 144, 255)" fill="rgb(40, 144, 255)" d="m708.878367,479.161095l0,0q-6.72,0 -12.49,-1.88q-5.76,-1.88 -10.03,-5.64q-4.28,-3.77 -6.73,-9.47q-2.45,-5.7 -2.45,-13.35l0,0q0,-7.52 2.45,-12.94q2.45,-5.42 6.44,-8.9q3.99,-3.48 9.13,-5.13q5.13,-1.65 10.49,-1.65l0,0q6.05,0 11.01,1.82q4.96,1.83 8.55,5.02q3.6,3.19 5.59,7.64q2,4.45 2,9.7l0,0q0,3.87 -2.17,5.93q-2.17,2.05 -6.05,2.62l0,0l-28.17,4.22q1.26,3.77 5.13,5.65q3.88,1.88 8.9,1.88l0,0q4.68,0 8.84,-1.2q4.16,-1.2 6.79,-2.79l0,0q1.82,1.14 3.08,3.19q1.25,2.05 1.25,4.34l0,0q0,5.13 -4.79,7.64l0,0q-3.65,1.94 -8.21,2.62q-4.56,0.68 -8.56,0.68zm-3.19,-44.82l0,0q-2.74,0 -4.73,0.91q-2,0.91 -3.25,2.34q-1.26,1.43 -1.89,3.19q-0.62,1.77 -0.74,3.6l0,0l19.51,-3.2q-0.34,-2.28 -2.51,-4.56q-2.17,-2.28 -6.39,-2.28z"/>
      </g>
     </svg>
    </g>
   </g>
  </g>
 </g>
</svg>